<svg width="142" height="141" viewBox="0 0 142 141" fill="none" xmlns="http://www.w3.org/2000/svg">
<path d="M21.3893 5.37926C22.0812 3.78242 23.1458 2.39849 24.2636 1.75975C25.1685 1.17424 26.5524 0.69519 27.2976 0.69519C28.3622 0.69519 28.1493 0.908103 26.2331 1.75975C24.6894 2.39849 23.5716 3.3566 22.9329 4.52761C22.4006 5.48572 21.9748 7.3487 21.9748 8.67941C21.9393 10.2762 22.2942 11.5715 23.0394 12.5651C23.6249 13.3635 24.7958 14.3748 25.7007 14.8006C26.6056 15.2265 27.9896 15.5991 28.8945 15.5991C29.7993 15.5991 31.13 15.2797 31.9817 14.8539C32.7801 14.4813 34.2173 13.2038 35.2286 12.086C36.3996 10.7553 36.9319 10.3827 36.719 11.0747C36.5593 11.6602 36.2931 12.6715 36.1334 13.3635C35.9737 14.0022 35.4947 14.5345 35.1754 14.5345C34.8028 14.5345 34.0044 15.0136 33.4188 15.5991C32.7801 16.2378 31.2897 16.7701 29.6928 16.983C27.6702 17.1959 26.6056 17.0362 25.1684 16.2378C24.1571 15.7055 22.7733 14.428 22.0813 13.4167C21.4426 12.4054 20.7505 10.7553 20.5908 9.74397C20.3779 8.46649 20.5908 7.08256 21.3893 5.37926Z" fill="#BC8F59"/>
<path d="M58.2764 8.30681C60.0329 8.04067 61.0974 7.50839 61.6297 6.70997C62.0555 6.018 62.7475 5.48572 63.1733 5.48572C63.5992 5.48572 64.4508 5.75186 65.0363 6.018C65.6751 6.33737 66.1009 7.08256 66.1009 7.98744C66.1009 8.83909 65.8348 9.7972 65.4622 10.1166C65.0896 10.4892 64.3443 10.8085 63.7056 10.8085C63.1201 10.8085 62.162 10.2762 61.5765 9.69074C60.5652 8.67941 60.3523 8.62618 55.8811 10.0101L59.1281 12.5118C61.8959 14.6942 62.641 15.0136 64.0782 14.7474C65.6218 14.4813 65.7283 14.5345 64.7702 15.12C64.1847 15.4394 63.6524 15.8652 63.5459 15.9184C63.4927 16.0249 64.3443 17.0894 65.4089 18.2605C67.3251 20.3364 67.538 20.4428 69.6139 20.017C71.0511 19.7509 72.2221 19.1121 72.9673 18.1008C73.6593 17.2491 74.5641 16.6636 75.4158 16.6636C76.161 16.6636 77.0659 17.1427 77.5982 17.8346C78.0772 18.5266 78.2901 19.6444 78.1304 20.3896C77.9707 21.1348 77.2788 22.0397 76.5336 22.359C75.6287 22.7849 74.7771 22.8913 74.1916 22.5719C73.7125 22.3058 73.0206 21.7735 72.648 21.4009C72.2754 20.9751 71.264 20.709 70.3591 20.7622C69.5075 20.8686 68.7623 21.1348 68.7623 21.4542C68.7623 21.7735 69.401 22.8381 70.1994 23.8494C71.4237 25.393 72.0092 25.7124 73.819 25.7124C75.0965 25.7656 76.2674 25.4463 76.7465 24.914C77.1723 24.4349 78.024 24.1156 78.6095 24.222C79.408 24.3285 79.6741 24.8075 79.6741 25.9785C79.6741 27.1496 79.408 27.6286 78.6095 27.7351C78.024 27.8415 77.1723 27.5222 76.7465 27.0431C76.3207 26.5641 75.2561 26.1915 74.4577 26.2447C73.4463 26.2447 73.0205 26.5108 73.0205 27.1496C73.0205 27.6818 73.6593 28.9061 74.3512 29.811C75.3626 31.1417 76.0545 31.5675 77.3852 31.5675C78.503 31.5675 79.4611 31.1949 80.0466 30.5029C80.5789 29.9174 81.3774 29.4384 81.8032 29.4384C82.229 29.4384 82.9742 29.811 83.4 30.2368C83.8258 30.6626 84.1985 31.461 84.1985 31.9401C84.1985 32.4724 83.9323 33.2176 83.5597 33.5369C83.1871 33.9095 82.4419 34.2289 81.8032 34.2289C81.2177 34.2821 80.366 33.9095 79.9402 33.4305C79.5144 32.9514 78.4498 32.5788 77.6514 32.6321C76.853 32.6321 76.2142 32.7385 76.2142 32.8982C76.2142 33.0579 76.64 33.9095 77.1191 34.7612C77.811 35.9322 78.4498 36.358 79.5144 36.358C79.9793 36.358 80.4081 36.4302 80.6853 36.5536L81.537 36.1092C82.1757 35.7366 83.0274 35.4705 83.4 35.4173C83.7726 35.4173 84.3048 35.8963 84.6242 36.4818C84.8903 37.0673 84.9436 37.919 84.7307 38.3448C84.5177 38.8239 84.0387 39.3029 83.6661 39.4094C83.3182 39.5585 82.506 39.1041 80.7094 37.1793C80.5377 37.208 80.3047 37.1806 80.0466 37.1032C79.5676 36.9435 78.9288 37.05 78.7159 37.3694C78.503 37.6887 78.5563 38.3275 78.8756 38.7533C78.9989 38.9505 79.3697 39.4152 79.6019 39.7969C79.7787 39.8051 79.9768 39.8396 80.2064 39.8942C80.9516 40.1072 81.8565 40.533 82.2291 40.8524C82.6017 41.2249 82.921 42.1298 82.8678 42.9815C82.8678 43.7799 82.4952 44.7912 82.0161 45.2171C81.5371 45.6429 80.6854 46.0155 80.0466 46.0155C79.4079 46.0155 78.4498 45.5897 77.9176 45.0574C77.7751 44.8686 77.5239 44.4847 77.5772 44.1653C77.5772 43.7927 77.4385 42.0766 77.9176 41.2249C78.2249 40.6922 78.4692 40.333 78.7172 40.1078C78.5476 39.753 78.3585 39.3016 78.1837 38.913C77.6514 37.7952 77.0126 36.9968 76.7465 37.1564C76.4271 37.3161 75.9481 38.0081 75.682 38.7533C75.3094 39.7114 75.3093 40.4566 75.7884 41.4147C76.3739 42.5325 76.3207 42.9051 75.682 43.597C75.0432 44.2358 74.6174 44.289 73.6593 43.8632C73.0205 43.5438 72.4883 42.9583 72.4883 42.6389C72.4883 42.2663 73.0205 41.3615 73.7125 40.6163C74.4045 39.8711 75.2561 38.3275 75.6287 37.1564C76.2142 35.3467 76.161 34.7612 75.469 33.324C74.99 32.3659 74.4045 31.5675 74.1916 31.5675C73.9859 31.5161 73.4822 32.4134 72.1046 34.2018C72.3089 34.3731 72.6273 34.8017 72.9141 35.2935C73.34 35.9854 73.5529 36.9968 73.4464 37.529C73.34 38.0613 72.8609 38.8065 72.3286 39.1259C71.6898 39.5517 71.1576 39.5517 70.4656 39.1259C69.9865 38.8065 69.4542 37.9549 69.401 37.2629C69.2591 36.4112 69.614 35.6838 70.4656 35.0805C71.1043 34.5483 71.7963 34.1224 71.956 34.1224C71.9678 34.1224 71.9811 34.1254 71.9957 34.131L72.2221 32.6321C72.435 31.8869 72.6479 30.8223 72.8076 30.2368C72.9141 29.6513 72.4883 28.4803 71.7431 27.5754C70.5721 26.1382 69.6633 26.2197 69.5075 27.7351C69.478 28.0222 69.4367 28.2637 69.3876 28.464C69.4318 28.4632 69.472 28.4684 69.5075 28.4803C69.8269 28.5867 70.3059 29.0658 70.6253 29.5981C70.9979 30.1836 70.9447 30.7691 70.5721 31.3546C70.2527 31.8869 69.5607 32.3127 69.0284 32.3127C68.4961 32.3127 67.8042 31.8869 67.4848 31.4078C67.0057 30.7158 67.1122 30.29 67.9107 29.3851C68.127 29.1687 68.358 28.9742 68.5793 28.8202C68.5656 28.6689 68.5788 28.4871 68.6291 28.286C68.8953 27.2214 69.0284 24.0091 68.4962 23.2107C68.0703 22.5187 67.3251 21.9864 66.8993 21.9864C66.4735 21.9864 66.2929 22.2761 65.9601 22.7238C65.7535 23.1485 65.6858 23.2646 65.4895 23.4469C65.2932 23.6292 65.0364 23.9026 64.9831 24.222C64.9831 24.5946 65.3557 25.2866 65.8348 25.7124C66.3138 26.1382 66.6864 26.8834 66.6864 27.3092C66.6864 27.7351 66.1542 28.5867 65.5686 29.1722C64.5573 30.1303 64.3444 30.1836 63.1201 29.4384C62.3217 28.9593 61.7894 28.1609 61.8426 27.4689C61.8426 26.777 62.3217 25.9253 62.854 25.6059C63.4395 25.2333 64.3976 23.9559 66.1009 20.6557L63.5459 18.1008C61.2571 15.7587 60.991 15.6523 60.3522 16.5039C59.9796 17.0362 59.7135 17.7814 59.7135 18.154C59.7135 18.4734 60.1393 18.8992 60.6184 19.0589C61.1507 19.2186 61.8427 19.8573 62.162 20.5493C62.4814 21.188 62.5878 22.1993 62.3749 22.7849C62.162 23.3704 61.5233 24.0091 60.991 24.2752C60.4055 24.4882 59.5538 24.5414 59.0215 24.3817C58.5425 24.222 57.8505 23.5833 57.5312 22.9445C57.0521 21.9332 57.1586 21.4542 57.957 20.3896C58.5425 19.6444 59.1812 18.0476 59.3409 16.8233C59.6603 14.7474 59.5538 14.428 58.2231 13.5232C57.4247 12.9377 56.5198 12.6183 56.2537 12.8312C55.9343 13.0441 55.4021 13.7893 54.9762 14.5345C54.3907 15.7055 54.3907 16.0781 55.2423 17.5685C56.2004 19.1653 56.2005 19.2718 55.2956 20.6025C54.8165 21.3477 53.9116 21.9864 53.3261 21.9864C52.7406 21.9864 51.7826 21.5074 51.1971 20.9219C50.6115 20.3364 50.1325 19.6444 50.1325 19.325C50.1325 19.0057 50.8776 18.0476 51.8357 17.0894C52.7938 16.1846 54.0181 14.5345 54.4971 13.5232L55.4553 11.607C55.4553 11.607 54.6568 11.1811 53.6987 10.7021C52.7938 10.1698 50.8244 9.26492 49.4405 8.67941C48.0566 8.0939 47.0453 7.3487 47.2049 7.08256C47.3646 6.76319 48.5888 6.97611 50.2389 7.66807C51.7825 8.30681 53.6455 8.83909 54.3907 8.78586C55.1359 8.78586 56.8925 8.57295 58.2764 8.30681Z" fill="#BC8F59"/>
<path d="M25.3814 12.4054C24.4765 11.4473 24.4232 11.1279 24.9555 10.0101C25.3813 9.15846 26.0734 8.67941 26.8186 8.67941C27.8831 8.73263 27.9363 8.78586 27.0847 9.21169C26.6056 9.53106 26.1798 10.2762 26.1798 10.915C26.1266 12.0328 26.3395 12.086 27.7766 11.7134C28.6283 11.5005 29.3735 11.5005 29.3735 11.7134C29.3735 11.9795 29.1074 12.4586 28.7348 12.778C28.3622 13.1506 27.7234 13.4699 27.2444 13.4699C26.8185 13.5232 25.9669 12.9909 25.3814 12.4054Z" fill="#BC8F59"/>
<path d="M43.2128 11.1811C42.6273 10.3827 42.1482 9.63751 42.1482 9.47783C42.1482 9.31814 42.3612 9.21169 42.6805 9.21169C42.9467 9.21169 43.7983 9.90365 44.5435 10.8085C45.2887 11.7134 45.8742 12.9909 45.8742 13.7361C45.8742 14.4813 45.3951 15.7587 44.8096 16.6636C44.2241 17.5685 42.9466 18.5266 41.9885 18.7927C40.2852 19.325 40.2853 19.3783 40.4449 22.1461C40.5514 24.1156 40.3385 25.3398 39.5933 26.5108C39.061 27.4157 37.7303 28.5335 36.6657 29.0125C35.5479 29.5448 34.0043 29.9706 33.2059 29.9706C32.4075 29.9706 30.9171 29.4384 29.9058 28.7464C28.8944 28.1077 27.6169 26.6705 27.0847 25.5527C26.4814 24.2398 26.3395 23.2639 26.6589 22.6252C27.0315 21.88 27.1911 22.0929 27.4573 23.6897C27.6702 25.0204 28.3089 26.1915 29.3735 27.0431C30.5445 28.0544 31.5559 28.3738 33.4188 28.3738C35.3883 28.3738 36.1334 28.1077 37.4109 26.777C38.5819 25.5527 38.9545 24.7011 38.9545 23.051C38.9545 21.88 38.6352 20.2831 38.2626 19.5379C37.89 18.7927 37.0916 17.8346 36.3996 17.4088C35.7076 16.983 35.3351 16.3443 35.4948 15.8652C35.6544 15.4394 35.9738 15.0668 36.2931 15.0668C36.5593 15.0668 36.8255 15.3861 36.8255 15.7055C36.7722 16.0781 37.3577 16.7168 37.9964 17.0894C38.6884 17.462 39.9127 17.7282 40.7643 17.6217C41.616 17.5153 42.4143 17.1427 42.5208 16.7701C42.574 16.4507 42.4676 16.1846 42.2547 16.1846C42.0418 16.2378 41.5627 16.2378 41.1901 16.1846C40.8175 16.1846 40.5514 15.7587 40.5514 15.3329C40.5514 14.8539 40.8708 14.641 41.3498 14.8006C41.8289 14.9603 42.1482 14.7474 42.1482 14.2684C42.1482 13.7361 42.5031 13.5586 43.2128 13.7361C43.8516 13.8958 44.2774 13.7361 44.2774 13.3103C44.2774 12.9909 43.7983 12.0328 43.2128 11.1811Z" fill="#BC8F59"/>
<path d="M66.4203 13.8425C66.6332 13.5232 67.1655 12.778 67.5913 12.2457C68.0171 11.7666 68.6558 11.3408 68.9752 11.3408C69.2946 11.3408 69.9866 11.7666 70.5188 12.2989C70.9979 12.778 71.4237 13.6828 71.4237 14.2684C71.4237 14.8539 71.1576 15.6523 70.785 15.9717C70.4124 16.3443 69.6672 16.6636 69.0284 16.6636C68.4429 16.7169 67.538 16.2378 67.0058 15.5991C66.5267 15.0136 66.2606 14.2151 66.4203 13.8425Z" fill="#BC8F59"/>
<path d="M35.2286 24.5946C36.027 24.5946 36.1867 24.3285 35.9738 23.53C35.8141 22.9445 35.8673 22.4655 36.0803 22.4655C36.3464 22.4123 36.9319 22.7849 37.3577 23.2639C38.0497 24.0091 38.0497 24.222 37.0916 25.1801C36.5061 25.7656 35.6012 26.2447 35.0689 26.1915C34.5898 26.1915 33.8979 25.7124 33.6317 25.1269C33.2591 24.4349 33.2591 23.9559 33.6317 23.743C33.8979 23.5833 34.164 23.743 34.164 24.0091C34.164 24.3285 34.6431 24.5946 35.2286 24.5946Z" fill="#BC8F59"/>
<path d="M11.7018 121.523C11.6486 120.778 12.0212 119.766 12.6067 119.234C13.1389 118.702 13.7776 118.276 14.0438 118.276C14.3631 118.276 14.2035 118.702 13.7244 119.181C13.2454 119.713 12.8728 120.778 12.8728 121.576C12.8728 122.428 13.1921 123.173 13.6712 123.333C14.1503 123.492 14.5761 123.173 14.7357 122.534C14.9487 121.736 15.4277 121.47 16.7052 121.47C17.6633 121.523 19.5263 121.736 20.857 122.002C22.4538 122.321 23.8378 123.12 25.1153 124.344C26.1266 125.355 28.0428 126.686 29.3735 127.272C30.7042 127.804 32.0349 128.602 32.4075 129.028C32.9398 129.56 32.8334 130.039 31.9285 131.317C31.343 132.169 29.7994 133.765 28.5219 134.777C27.2444 135.788 24.6894 137.545 22.8264 138.662C20.8038 139.887 18.994 140.632 18.1956 140.525C16.9713 140.366 16.8117 140.046 16.5455 137.438C16.3859 135.841 15.6939 133.446 15.0551 132.115C14.2035 130.465 13.8841 129.028 14.0438 127.485C14.1502 125.781 13.9374 124.983 13.0325 124.025C12.3406 123.333 11.755 122.215 11.7018 121.523Z" fill="#BC8F59"/>
<path d="M25.4878 139.354C25.4346 138.929 25.9669 138.237 26.7121 137.758C27.4573 137.332 28.3089 136.906 28.6815 136.906C29.2138 136.906 29.2138 137.172 28.8412 137.97C28.5219 138.556 27.8299 139.248 27.2444 139.567C26.6588 139.833 26.0733 140.1 25.9137 140.1C25.754 140.1 25.5943 139.727 25.4878 139.354Z" fill="#BC8F59"/>
<path d="M42.1765 33.4511C42.1628 33.2997 42.1761 33.118 42.2263 32.9168C42.6368 32.0785 43.2913 30.1434 42.6257 29.109C41.96 28.0746 41.6643 27.6264 41.5996 27.5316L42.8408 26.8334L43.7967 28.4803C45.0209 30.0239 45.6064 30.3432 47.4162 30.3432C48.6937 30.3965 49.8647 30.0771 50.3437 29.5448C50.7695 29.0658 51.6212 28.7464 52.2067 28.8529C53.0052 28.9593 53.2713 29.4384 53.2713 30.6094C53.2713 31.7804 53.0052 32.2595 52.2067 32.3659C51.6212 32.4724 50.7695 32.153 50.3437 31.6739C49.9179 31.1949 48.8533 30.8223 48.0549 30.8755C47.0435 30.8755 46.6178 31.1417 46.6178 31.7804C46.6178 32.3127 47.2565 33.5369 47.9485 34.4418C48.9598 35.7725 49.6517 36.1983 50.9824 36.1983C52.1002 36.1983 53.0583 35.8257 53.6439 35.1338C54.1761 34.5483 54.9746 34.0692 55.4004 34.0692C55.8263 34.0692 56.5714 34.4418 56.9972 34.8676C57.4231 35.2935 57.7957 36.0919 57.7957 36.5709C57.7957 37.1032 57.5295 37.8484 57.1569 38.1678C56.7843 38.5404 56.0392 38.8597 55.4004 38.8597C54.8149 38.913 53.9632 38.5404 53.5374 38.0613C53.1116 37.5823 52.047 37.2097 51.2486 37.2629C50.4502 37.2629 49.8114 37.3694 49.8114 37.529C49.8114 37.6887 50.2372 38.5404 50.7163 39.392C51.4082 40.563 52.047 40.9889 53.1116 40.9889C53.5765 40.9889 54.0054 41.0611 54.2825 41.1844L55.1342 40.7401C55.7729 40.3675 56.6246 40.1013 56.9972 40.0481C57.3698 40.0481 57.902 40.5272 58.2214 41.1127C58.4876 41.6982 58.5408 42.5498 58.3279 42.9757C58.115 43.4547 57.6359 43.9338 57.2633 44.0402C56.9154 44.1893 56.1032 43.735 54.3066 41.8101C54.135 41.8389 53.9019 41.8115 53.6439 41.7341C53.1648 41.5744 52.5261 41.6808 52.3132 42.0002C52.1002 42.3196 52.1535 42.9583 52.4729 43.3841C52.5961 43.5813 52.9669 44.046 53.1991 44.4277C53.3759 44.436 53.5741 44.4704 53.8036 44.5251C54.5488 44.738 55.4537 45.1638 55.8263 45.4832C56.1989 45.8558 56.5183 46.7607 56.465 47.6123C56.465 48.4107 56.0924 49.4221 55.6134 49.8479C55.1343 50.2737 54.2826 50.6463 53.6439 50.6463C53.0051 50.6463 52.0471 50.2205 51.5148 49.6882C51.3724 49.4995 51.1212 49.1155 51.1744 48.7962C51.1744 48.4236 51.0357 46.7074 51.5148 45.8558C51.8222 45.323 52.0664 44.9638 52.3144 44.7387C52.1448 44.3838 51.9558 43.9324 51.7809 43.5438C51.2486 42.426 50.6099 41.6276 50.3437 41.7873C50.0243 41.947 49.5453 42.6389 49.2792 43.3841C48.9066 44.3422 48.9065 45.0874 49.3856 46.0455C49.9711 47.1633 49.9179 47.5359 49.2792 48.2279C48.6404 48.8666 48.2146 48.9199 47.2565 48.494C46.6178 48.1747 46.0855 47.5892 46.0855 47.2698C46.0855 46.8972 46.6178 45.9923 47.3097 45.2471C48.0017 44.5019 48.8533 42.9583 49.2259 41.7873C49.8115 39.9775 49.7582 39.392 49.0662 37.9549C48.5872 36.9968 48.0017 36.1983 47.7888 36.1983C47.5831 36.1469 47.0794 37.0442 45.7019 38.8327C45.9061 39.0039 46.2245 39.4326 46.5114 39.9243C46.9372 40.6163 47.1501 41.6276 47.0436 42.1599C46.9372 42.6922 46.4581 43.4374 45.9258 43.7567C45.2871 44.1826 44.7548 44.1826 44.0628 43.7567C43.5838 43.4374 43.0514 42.5857 42.9982 41.8937C42.8563 41.0421 43.2112 40.3146 44.0628 39.7114C44.7016 39.1791 45.3935 38.7533 45.5532 38.7533C45.565 38.7533 45.5783 38.7562 45.5929 38.7619L45.8193 37.2629C46.0322 36.5177 46.2452 35.4531 46.4048 34.8676C46.5113 34.2821 46.0855 33.1111 45.3403 32.2062C44.1693 30.7691 43.2605 30.8506 43.1047 32.3659C43.0752 32.653 43.0339 32.8945 42.9848 33.0948C43.029 33.094 43.0692 33.0993 43.1047 33.1111C43.4241 33.2176 43.9032 33.6966 44.2225 34.2289C44.5951 34.8144 44.5419 35.3999 44.1693 35.9854C43.8499 36.5177 43.1579 36.9435 42.6257 36.9435C42.0934 36.9435 41.4014 36.5177 41.082 36.0387C40.603 35.3467 40.7095 34.9209 41.5079 34.016C41.7243 33.7996 41.9552 33.605 42.1765 33.4511Z" fill="#BC8F59"/>
<circle cx="12.3566" cy="13.4446" r="1.73895" fill="#913025"/>
<circle cx="43.7375" cy="2.62884" r="1.73895" fill="#913025"/>
<circle cx="74.0897" cy="2.61739" r="1.51107" fill="#913025"/>
<circle cx="111.305" cy="2.20626" r="1.51107" fill="#913025"/>
<circle cx="139.502" cy="5.09662" r="2.12629" fill="#913025"/>
<circle cx="28.0332" cy="32.4976" r="2.41255" fill="#913025"/>
<circle cx="34.7207" cy="38.9516" r="2.30423" fill="#913025"/>
<circle cx="7.33856" cy="82.3494" r="1.73895" fill="#913025"/>
<circle cx="34.5085" cy="86.633" r="1.73895" fill="#913025"/>
<circle cx="17.6193" cy="105.97" r="1.73895" fill="#913025"/>
<path d="M18.9893 17.4448C17.3038 21.4936 12.5458 24.109 9.86676 24.8264C13.4844 30.4674 9.67315 33.4549 7.31533 34.2436C13.4523 38.6915 8.55867 42.7124 5.34473 44.1669C12.1573 46.5316 10.3416 52.7061 8.58214 55.4978C15.62 53.2457 17.4263 58.2191 17.4498 60.9873C23.249 59.7486 28.4053 63.3801 30.2586 65.3507C28.9785 59.1888 29.0387 54.1841 30.2586 52.4011C29.4141 52.2838 27.0634 51.3736 24.4172 48.6711C21.771 45.9686 23.7369 42.0086 25.0506 40.3665C23.9246 39.5923 21.4191 37.3965 20.4057 34.8066C19.3922 32.2167 21.9334 28.7307 23.3307 27.3115C20.7259 24.3909 19.3511 19.5168 18.9893 17.4448Z" fill="#3B533D"/>
<path d="M18.9893 17.4448C17.3038 21.4936 12.5458 24.109 9.86676 24.8264C13.4844 30.4674 9.67315 33.4549 7.31533 34.2436C13.4523 38.6915 8.55867 42.7124 5.34473 44.1669C12.1573 46.5316 10.3416 52.7061 8.58214 55.4978C15.62 53.2457 17.4263 58.2191 17.4498 60.9873C23.249 59.7486 28.4053 63.3801 30.2586 65.3507C28.9785 59.1888 29.0387 54.1841 30.2586 52.4011C29.4141 52.2838 27.0634 51.3736 24.4172 48.6711C21.771 45.9686 23.7369 42.0086 25.0506 40.3665C23.9246 39.5923 21.4191 37.3965 20.4057 34.8066C19.3922 32.2167 21.9334 28.7307 23.3307 27.3115C20.7259 24.3909 19.3511 19.5168 18.9893 17.4448ZM18.9893 17.4448C15.5309 26.056 11.2789 45.7222 21.9381 55.4978" stroke="#BC8F59" stroke-width="1.01652" stroke-linecap="round"/>
<path d="M30.8366 70.652C31.601 72.1738 31.1563 74.2638 30.6829 75.2515C33.2735 75.572 33.1809 77.4695 32.8107 78.3781C35.6934 77.6399 35.629 80.1226 35.2365 81.4562C37.6769 79.9928 39.0355 82.0859 39.4097 83.3154C40.5447 80.6286 42.475 81.3283 43.2982 82.0141C44.4156 79.9546 46.8064 79.3078 47.8622 79.2419C45.7156 78.0859 44.2534 76.8152 44.039 76.001C43.7884 76.2264 42.9185 76.7077 41.4439 76.8297C39.9693 76.9516 39.3029 75.3675 39.1541 74.5601C38.6375 74.7061 37.3485 74.9124 36.3247 74.5699C35.3009 74.2275 34.9216 72.5884 34.8599 71.8117C33.3315 71.8666 31.5409 71.0614 30.8366 70.652ZM30.8366 70.652C32.4945 73.8505 37.2133 80.0553 42.8254 79.2861" stroke="#BC8F59" stroke-width="0.508259" stroke-linecap="round"/>
<path d="M111.621 7.70856C113.202 8.33967 114.257 10.1981 114.558 11.2512C116.709 9.77159 117.899 11.2525 118.225 12.1779C119.891 9.71255 121.491 11.6124 122.082 12.8705C122.936 10.1562 125.342 10.8203 126.438 11.4916C125.504 8.72855 127.412 7.97095 128.483 7.93753C127.952 5.65539 129.311 3.58493 130.057 2.83496C127.684 3.39484 125.747 3.41468 125.046 2.9479C125.008 3.28285 124.677 4.2202 123.655 5.29007C122.633 6.35993 121.083 5.61717 120.436 5.11205C120.146 5.56404 119.319 6.57383 118.326 6.99712C117.333 7.42042 115.961 6.44605 115.4 5.90596C114.293 6.96136 112.419 7.54744 111.621 7.70856ZM111.621 7.70856C114.983 9.00089 122.631 10.5106 126.319 6.21077" stroke="#BC8F59" stroke-width="0.508259" stroke-linecap="round"/>
<path d="M24.1829 98.2427C25.2113 99.3936 27.0953 99.7128 28.0687 99.6414C27.5185 101.935 29.1308 102.487 30.0057 102.477C28.4801 104.665 30.5717 105.435 31.8081 105.547C29.8171 107.121 31.1346 108.963 32.0422 109.688C29.4425 109.753 29.4171 111.615 29.7294 112.538C27.6586 112.797 26.3646 114.6 25.9764 115.469C25.6894 113.273 25.0907 111.617 24.4791 111.165C24.7462 111.028 25.4223 110.454 25.9894 109.25C26.5565 108.045 25.4452 106.956 24.8186 106.563C25.1034 106.175 25.6823 105.155 25.7197 104.177C25.7571 103.199 24.5093 102.334 23.8808 102.024C24.4089 100.752 24.3022 98.9732 24.1829 98.2427ZM24.1829 98.2427C26.3282 100.705 30.0155 106.75 27.6028 111.232" stroke="#BC8F59" stroke-width="0.508259" stroke-linecap="round"/>
<path d="M77.2202 12.2771C80.425 10.9437 82.4956 7.17836 83.0637 5.05811C87.5278 7.92209 89.8929 4.90609 90.5174 3.0401C94.0368 7.89786 97.2199 4.02534 98.3715 1.48185C100.242 6.87406 105.129 5.43784 107.339 4.04571C105.556 9.61551 109.491 11.0459 111.682 11.0648C110.701 15.6544 113.575 19.736 115.134 21.203C110.257 20.1891 106.296 20.236 104.885 21.2012C104.792 20.5328 104.072 18.6722 101.934 16.5775C99.7951 14.4828 96.6608 16.0381 95.3609 17.0776C94.7483 16.1863 93.0108 14.203 90.9611 13.4006C88.9115 12.5981 86.1522 14.6089 85.0287 15.7145C82.7176 13.6525 78.8601 12.5638 77.2202 12.2771Z" fill="#3B533D"/>
<path d="M77.2202 12.2771C80.425 10.9437 82.4956 7.17836 83.0637 5.05811C87.5278 7.92209 89.8929 4.90609 90.5174 3.0401C94.0368 7.89786 97.2199 4.02534 98.3715 1.48185C100.242 6.87406 105.129 5.43784 107.339 4.04571C105.556 9.61551 109.491 11.0459 111.682 11.0648C110.701 15.6544 113.575 19.736 115.134 21.203C110.257 20.1891 106.296 20.236 104.885 21.2012C104.792 20.5328 104.072 18.6722 101.934 16.5775C99.7951 14.4828 96.6608 16.0381 95.3609 17.0776C94.7483 16.1863 93.0108 14.203 90.9611 13.4006C88.9115 12.5981 86.1522 14.6089 85.0287 15.7145C82.7176 13.6525 78.8601 12.5638 77.2202 12.2771ZM77.2202 12.2771C84.0361 9.54118 99.6017 6.17866 107.337 14.6163" stroke="#BC8F59" stroke-width="1.01652" stroke-linecap="round"/>
<path d="M8.80281 63.1867C11.3851 65.5069 15.6756 65.7572 17.8344 65.3583C17.1683 70.6209 20.9088 71.4593 22.8623 71.2207C19.9896 76.4878 24.8553 77.6965 27.6472 77.6425C23.5828 81.6506 26.9815 85.4457 29.1889 86.8423C23.3926 87.6274 23.7938 91.7966 24.719 93.783C20.1528 94.871 17.7032 99.221 17.0491 101.26C15.8673 96.4204 14.1214 92.864 12.6429 92.0048C13.2065 91.6336 14.5768 90.1832 15.5486 87.3513C16.5203 84.5194 13.7678 82.3581 12.2701 81.6314C12.8115 80.695 13.855 78.2731 13.6981 76.0772C13.5412 73.8814 10.5388 72.2546 9.05726 71.7157C9.92519 68.742 9.24926 64.7907 8.80281 63.1867Z" fill="#3B533D"/>
<path d="M8.80281 63.1867C11.3851 65.5069 15.6756 65.7572 17.8344 65.3583C17.1683 70.6209 20.9088 71.4593 22.8623 71.2207C19.9896 76.4878 24.8553 77.6965 27.6472 77.6425C23.5828 81.6506 26.9815 85.4457 29.1889 86.8423C23.3926 87.6274 23.7938 91.7966 24.719 93.783C20.1528 94.871 17.7032 99.221 17.0491 101.26C15.8673 96.4204 14.1214 92.864 12.6429 92.0048C13.2065 91.6336 14.5768 90.1832 15.5486 87.3513C16.5203 84.5194 13.7678 82.3581 12.2701 81.6314C12.8115 80.695 13.855 78.2731 13.6981 76.0772C13.5412 73.8814 10.5388 72.2546 9.05726 71.7157C9.92519 68.742 9.24926 64.7907 8.80281 63.1867ZM8.80281 63.1867C14.2046 68.1644 23.9353 80.7732 19.6433 91.3868" stroke="#BC8F59" stroke-width="1.01652" stroke-linecap="round"/>
</svg>
