<svg width="334" height="299" viewBox="0 0 334 299" fill="none" xmlns="http://www.w3.org/2000/svg">
<g filter="url(#filter0_d_202_56)">
<path d="M289.314 22.1081C289.278 21.4843 289.571 20.8239 290.121 20.2736C290.672 19.7599 291.406 19.4297 292.213 19.4297C293.02 19.4297 293.68 19.7232 294.157 20.2736C294.561 20.7138 294.928 21.5944 294.928 22.1814C294.928 22.8052 294.634 23.6857 294.267 24.126C293.901 24.603 293.203 25.0066 292.726 25.0433C292.066 25.1167 291.699 25.5202 291.149 26.7677C290.782 27.6849 290.562 28.6388 290.672 28.8957C290.819 29.2259 291.222 29.2626 292.066 29.0424C292.727 28.8957 293.46 28.6389 293.717 28.4921C293.974 28.3454 294.157 28.0519 294.157 27.795C294.194 27.5382 294.451 27.0245 294.818 26.6576C295.148 26.3274 295.735 26.0339 296.102 26.0339C296.432 26.0339 296.983 26.4375 297.276 26.9512C297.57 27.4648 297.753 28.1986 297.643 28.6022C297.533 29.0058 297.129 29.5195 296.726 29.7029C296.212 29.9598 295.735 29.923 295.075 29.5195C294.267 29.0425 294.011 29.0425 292.873 29.5195C292.176 29.813 291.222 30.0698 290.782 30.0698C290.195 30.0698 289.681 30.5101 289.131 31.5374C288.654 32.3446 288.287 33.1884 288.287 33.3718C288.287 33.592 288.837 33.7388 289.498 33.7755C290.268 33.7755 291.039 33.4453 291.699 32.8582C292.249 32.3446 293.093 31.9043 293.607 31.9043C294.121 31.9043 294.854 32.2345 295.258 32.6381C295.772 33.1517 295.955 33.6654 295.808 34.3992C295.698 34.9495 295.221 35.6833 294.781 36.0502C294.341 36.4171 293.79 36.7107 293.534 36.7107C293.277 36.674 292.616 36.2337 292.066 35.6834C291.222 34.8395 290.708 34.656 289.241 34.656C287.48 34.656 287.443 34.6927 286.232 36.6006C285.535 37.6646 284.985 38.6919 284.985 38.8754C284.985 39.0955 285.352 39.3157 285.829 39.4258C286.269 39.5358 287.003 39.6092 287.48 39.6092C287.92 39.6092 288.434 39.3523 288.581 39.0221C288.727 38.6919 289.131 38.2883 289.498 38.1049C289.901 37.8847 290.452 37.9581 291.039 38.325C291.626 38.6919 291.956 39.2056 291.956 39.7926C291.956 40.343 291.626 40.93 291.149 41.2603C290.672 41.5905 290.232 41.8106 290.121 41.8473C290.011 41.8473 289.498 41.5171 288.947 41.1135C288.324 40.6365 287.113 40.2696 283.884 39.9761L282.417 41.994C281.609 43.0947 280.949 44.0853 280.949 44.1954C280.949 44.3055 281.609 44.5623 282.417 44.7458C283.774 45.076 283.994 45.0393 285.168 44.012C285.939 43.3516 286.856 42.9113 287.48 42.9113C288.03 42.948 288.837 43.3149 289.314 43.7552C289.791 44.2321 290.158 45.0026 290.158 45.663C290.158 46.2868 289.828 47.2407 289.388 47.791C288.947 48.4147 288.324 48.7816 287.737 48.7816C287.223 48.7816 286.526 48.6349 286.196 48.4882C285.829 48.3047 285.168 47.5709 284.728 46.8371C284.214 46.0299 283.701 45.5897 283.444 45.6997C283.187 45.8098 282.307 45.7364 280.032 45.0393L278.124 47.0205C277.06 48.0845 276.179 49.1486 276.179 49.3321C276.179 49.5522 276.766 49.8824 277.463 50.0658C278.564 50.396 278.821 50.3226 279.628 49.5521C280.142 49.0385 280.912 48.7083 281.573 48.7083C282.123 48.745 282.894 49.0385 283.26 49.4054C283.627 49.7723 283.921 50.396 283.921 50.7996C283.921 51.2032 283.591 52.0104 283.15 52.5607C282.71 53.1845 282.086 53.5514 281.499 53.5514C280.986 53.5514 280.252 53.2212 279.848 52.8176C279.445 52.414 279.114 51.9003 279.114 51.6435C279.114 51.3867 278.491 51.0565 277.757 50.9097C276.986 50.7629 276.033 50.5794 275.629 50.4327C275.115 50.2859 274.198 50.7629 272.327 52.2672C270.933 53.3679 269.648 54.2852 269.502 54.2852C269.355 54.2852 269.208 54.5053 269.208 54.7622C269.208 55.019 269.832 55.4226 270.566 55.6794C271.336 55.8996 272.327 56.1197 272.804 56.1197C273.244 56.1197 273.941 55.7161 274.345 55.2024C274.858 54.5787 275.445 54.2852 276.289 54.2852C276.95 54.2852 277.757 54.542 278.124 54.909C278.527 55.3492 278.748 56.0096 278.674 56.8168C278.601 57.6239 278.234 58.3211 277.647 58.798C277.023 59.275 276.436 59.4217 275.739 59.275C275.115 59.1649 274.492 58.6513 274.161 57.9542C273.684 57.0002 273.428 56.8534 272.07 56.8534C271.189 56.8534 269.832 56.5233 269.025 56.1564C267.595 55.4964 267.521 55.5325 266.093 56.2282L266.09 56.2297C265.282 56.6333 263.705 57.257 262.604 57.6606C261.503 58.0275 260.549 58.3211 260.513 58.3211C260.439 58.3211 260.403 58.0642 260.403 57.7707C260.403 57.4405 261.21 56.9269 262.531 56.4499C263.668 56.0463 265.209 55.3858 265.906 55.0189C266.603 54.652 267.52 54.1017 267.924 53.8082C268.658 53.2946 268.658 53.2945 267.887 52.2305C267.447 51.6435 266.933 50.6896 266.787 50.1025C266.603 49.5155 266.2 48.9651 265.906 48.855C265.613 48.745 264.989 48.3414 264.512 47.9011C264.072 47.4975 263.705 46.727 263.705 46.2134C263.705 45.6997 264.108 44.9292 264.549 44.4522C264.989 44.012 265.759 43.6451 266.273 43.6451C266.787 43.6451 267.557 44.0487 268.034 44.4889C268.474 44.9292 268.878 45.6997 268.878 46.2134C268.878 46.727 268.511 47.6443 268.071 48.2313L268.023 48.2998C267.299 49.3327 267.278 49.3623 267.961 50.7629C268.364 51.5334 268.878 52.3039 269.135 52.4874C269.428 52.7075 270.089 52.4874 272.474 50.7996L272.253 48.5982C272.107 46.9471 271.813 46.1767 271.153 45.4796C270.566 44.8558 270.309 44.2321 270.382 43.4983C270.456 42.8746 270.896 42.1408 271.41 41.7372C272.021 41.2724 272.669 41.1135 273.354 41.2603C273.978 41.3703 274.565 41.8472 274.895 42.5444C275.262 43.2782 275.335 43.9753 275.189 44.599C275.042 45.1127 274.381 45.8832 273.721 46.2501C272.584 46.9105 272.547 47.0206 272.877 48.1579C273.097 48.8184 273.354 49.3687 273.427 49.442C273.538 49.4787 273.905 49.3687 274.271 49.1853C274.602 49.0018 275.812 47.9378 276.913 46.8004C278.821 44.8925 278.894 44.7457 278.344 44.122C278.014 43.7551 277.573 42.8746 277.353 42.1775C277.133 41.4804 276.656 40.8199 276.289 40.7099C275.922 40.5998 275.335 40.0495 275.005 39.4991C274.638 38.9488 274.418 38.1783 274.528 37.7747C274.638 37.3711 275.189 36.8207 275.739 36.5272C276.399 36.2092 277.011 36.1481 277.574 36.3438C278.014 36.5272 278.564 37.0042 278.748 37.4078C278.968 37.8114 279.114 38.4351 279.114 38.802C279.114 39.1322 278.784 39.7559 277.61 40.8933L278.344 42.471C278.784 43.3148 279.261 44.012 279.408 44.012C279.555 44.012 280.105 43.4983 280.655 42.8379C281.536 41.7372 281.609 41.4437 281.389 39.4258C281.242 37.8114 280.949 37.0042 280.325 36.4171C279.775 35.8668 279.555 35.3532 279.738 34.9496C279.848 34.5827 280.215 34.069 280.545 33.8489C280.876 33.592 281.316 33.3718 281.499 33.3718C281.719 33.4085 282.123 33.592 282.453 33.8489C282.783 34.1057 283.15 34.656 283.297 35.133C283.444 35.72 283.26 36.2337 282.637 36.9675C281.94 37.7746 281.829 38.1416 282.086 38.9854C282.27 39.5358 282.563 39.9761 282.71 39.9761C282.857 39.9761 283.591 39.0955 285.682 36.1236L284.765 34.2891C284.288 33.2985 283.884 32.3079 283.884 32.0877C283.884 31.9043 283.517 31.5374 283.077 31.3173C282.6 31.0971 282.05 30.4 281.793 29.7762C281.353 28.7122 281.389 28.5288 282.233 27.685C282.71 27.1713 283.371 26.7677 283.701 26.7677C283.994 26.7677 284.655 27.1713 285.168 27.685C285.682 28.1986 286.086 28.8223 286.086 29.0791C286.122 29.336 285.755 30.0331 285.315 30.6202C284.581 31.6475 284.545 31.8309 285.058 33.005C285.352 33.7021 285.829 34.3258 286.122 34.3992C286.416 34.4726 287.04 33.7755 288.581 30.987L287.7 29.1525C287.223 28.1619 286.819 27.0612 286.819 26.7677C286.819 26.4742 286.416 25.9605 285.902 25.667C285.315 25.3368 284.985 24.7865 284.948 24.1994C284.948 23.6858 285.205 23.0987 285.535 22.8418C285.829 22.585 286.489 22.4383 287.003 22.5484C287.553 22.6584 288.03 23.062 288.14 23.5756C288.287 24.0526 288.14 24.7498 287.773 25.3001C287.223 26.1807 287.223 26.3274 287.993 27.795C288.47 28.6389 288.984 29.3727 289.131 29.336C289.278 29.336 289.571 28.8957 289.791 28.3453C290.011 27.795 290.415 26.8777 290.708 26.3274C291.185 25.3734 291.149 25.2267 290.305 24.1994C289.791 23.6124 289.351 22.6584 289.314 22.1081Z" fill="#BC8F59"/>
<path d="M115.66 23.062C116.871 22.8419 119.44 22.4383 121.347 22.1814C123.255 21.9246 126.741 21.7045 129.052 21.6678C131.364 21.6678 135.253 21.8879 137.675 22.1814C140.096 22.475 143.251 22.9519 144.646 23.2455C146.077 23.539 148.535 24.1994 150.149 24.713C151.763 25.19 154.148 25.9972 155.469 26.5108C156.79 26.9878 159.505 28.2353 161.523 29.2626C163.541 30.2532 166.696 32.0878 168.494 33.2618C170.329 34.4726 173.044 36.4539 174.548 37.6646C176.052 38.8754 178.877 41.517 180.785 43.535C182.693 45.5163 185.188 48.3781 186.325 49.8824C187.426 51.4233 189.077 53.8082 189.958 55.2024C190.838 56.6333 192.343 59.3484 193.297 61.2562C194.214 63.1641 195.314 65.5857 195.681 66.5763C196.012 67.6036 196.415 68.5576 196.525 68.741C196.635 68.8878 198.396 68.631 200.414 68.1173C202.432 67.6037 205.074 67.0166 206.285 66.7964C207.496 66.5763 210.467 66.2461 212.889 66.0627C215.567 65.8425 218.943 65.8425 221.511 66.0627C223.823 66.2461 227.125 66.6864 228.849 66.9799C230.574 67.3101 233.949 68.1173 236.371 68.7777C238.792 69.4381 242.021 70.282 243.525 70.6122C245.03 70.9424 247.524 71.4561 249.029 71.7496C250.533 72.0798 253.615 72.5567 255.816 72.8503C258.054 73.1438 261.87 73.364 264.365 73.364C267.007 73.364 269.942 73.1439 271.52 72.8137C272.987 72.4834 275.005 71.8597 275.996 71.3827C277.023 70.9057 278.417 70.0985 279.114 69.5482C279.812 68.9978 280.876 67.8605 281.463 67.0166C282.417 65.5857 282.49 65.2921 282.27 63.0174C282.16 61.6598 282.123 60.5225 282.233 60.5225C282.343 60.5225 282.783 61.3296 283.187 62.2836C283.774 63.5677 283.921 64.4483 283.811 65.659C283.701 66.5763 283.26 68.0072 282.82 68.8878C282.417 69.7317 281.279 71.1992 280.325 72.1165C279.371 73.0704 277.427 74.3546 275.996 75.0517C274.602 75.7121 272.437 76.5193 271.226 76.8128C270.015 77.143 267.374 77.5833 265.356 77.8035C263.338 78.0236 260.549 78.097 259.118 77.9869C257.724 77.8769 255.633 77.6934 254.532 77.5833C253.431 77.4365 251.267 77.1063 249.763 76.8128C248.258 76.4826 246.093 75.9689 244.993 75.6754C243.892 75.3819 240.517 74.3546 237.471 73.364C234.463 72.3733 230.243 71.1626 228.115 70.6489C225.987 70.1353 222.538 69.5115 220.41 69.2913C218.246 69.0712 214.503 68.9612 211.788 69.0713C209.183 69.218 205.698 69.5482 204.083 69.8417C202.469 70.1353 200.084 70.6489 198.763 70.9792C197.443 71.3094 194.984 72.0798 193.26 72.6669C191.535 73.2539 188.967 74.2812 187.5 75.015C186.032 75.7121 184.674 76.2992 184.454 76.2992C184.271 76.2992 184.087 75.9689 184.087 75.5653C184.087 75.015 184.968 74.3913 188.05 72.887C190.215 71.823 192.856 70.5755 195.828 69.328L194.874 67.0533C194.361 65.7691 193.113 63.0908 192.086 61.0729C191.095 59.0549 189.371 56.083 188.343 54.4686C187.279 52.8543 185.628 50.5428 184.674 49.3321C183.757 48.1213 181.372 45.5163 179.391 43.4983C177.446 41.517 174.511 38.8387 172.897 37.5913C171.283 36.3438 168.568 34.4359 166.843 33.3718C165.119 32.3078 162.073 30.6202 160.055 29.6295C158.037 28.6389 154.479 27.2079 152.167 26.4375C149.856 25.667 146.37 24.6764 144.462 24.2728C142.554 23.8692 139.362 23.3555 137.418 23.1354C135.436 22.9152 132.134 22.7318 130.08 22.7318C127.988 22.7318 124.576 22.9152 122.448 23.1354C120.32 23.3188 116.688 23.9425 114.376 24.4562C112.065 24.9698 108.763 25.8871 107.038 26.4742C105.314 27.0979 102.012 28.4921 99.7004 29.5928C97.3889 30.6935 93.83 32.6748 91.812 33.9956C89.7941 35.3165 87.2258 37.1509 86.1251 38.0682C85.0244 38.9854 82.823 41.0034 81.2453 42.5077C79.6677 44.0486 77.3561 46.5436 76.072 48.0479C74.8245 49.5522 72.9901 51.9737 72.0361 53.3679C71.0455 54.7988 69.3578 57.5873 68.2937 59.6052C67.2297 61.6231 65.8356 64.5217 65.2118 66.026C64.6248 67.5303 64.1111 68.9978 64.1111 69.2546C64.1111 69.5849 64.9917 69.6583 67.8902 69.4748C70.4218 69.2914 72.6232 69.4014 74.7145 69.7317C77.7598 70.2453 77.7598 70.2453 77.5396 71.2726C77.4296 71.823 77.0627 72.8503 76.7692 73.5474C76.3289 74.6115 76.072 74.7948 75.4116 74.6481C74.9346 74.5747 73.1002 74.2812 71.2657 74.0611C68.7707 73.7309 67.1563 73.7309 64.6614 74.0611C62.8636 74.3179 60.3687 74.7582 59.1579 75.0517C57.9471 75.3452 55.8925 76.0423 54.5717 76.556C53.2508 77.1063 51.0495 78.2071 49.6553 79.0509C48.261 79.8581 45.9129 81.6926 44.3719 83.0868C42.8676 84.5177 40.9231 86.6458 40.0792 87.8565C39.2353 89.0673 38.0979 90.9385 37.5475 92.0025C37.0339 93.0665 36.1901 95.3779 35.6397 97.139C34.9426 99.5606 34.6857 101.285 34.649 104.184C34.6123 106.312 34.6857 109.21 34.8325 110.604C35.0893 113.062 35.0527 113.136 34.5757 111.999C34.2822 111.338 33.8419 109.614 33.6217 108.146C33.3649 106.642 33.2915 103.817 33.4016 101.615C33.5483 99.0836 33.952 96.6621 34.5757 94.4607C35.126 92.6629 36.1533 90.0212 36.8871 88.627C37.6576 87.1961 38.795 85.3249 39.4554 84.4077C40.1158 83.4904 41.6569 81.6926 42.941 80.4084C44.1885 79.1243 46.2064 77.3631 47.4171 76.4826C48.6279 75.6387 50.3523 74.538 51.2696 74.0244C52.1868 73.5474 53.9113 72.7402 55.1221 72.2633C56.3328 71.7863 58.5343 71.0525 60.0019 70.6489L60.0579 70.6327C62.6808 69.8783 62.7208 69.8669 63.2672 68.2274C63.5608 67.3101 64.7348 64.6684 65.8355 62.357C66.9362 60.0455 68.4405 57.147 69.1743 55.9362C69.9081 54.7254 71.5959 52.2672 72.9167 50.4327C74.2375 48.6349 76.9159 45.5163 78.8237 43.4983C80.7316 41.517 83.5201 38.9121 85.0244 37.7013C86.5287 36.4906 89.3538 34.4359 91.2617 33.1885C93.1696 31.941 96.2515 30.1432 98.0493 29.2626C99.8838 28.3454 102.672 27.0979 104.287 26.4742C105.901 25.8504 108.616 24.9332 110.34 24.4562C112.065 23.9425 114.45 23.3188 115.66 23.062Z" fill="#BC8F59"/>
<path d="M262.897 26.6576C262.861 26.2173 263.044 25.6303 263.338 25.3734C263.631 25.1533 264.108 24.9332 264.438 24.9332C264.732 24.9332 265.209 25.1533 265.466 25.4101C265.723 25.667 265.906 26.254 265.906 26.7677C265.906 27.2814 265.613 27.905 265.282 28.1252C264.769 28.4554 264.438 28.4555 263.815 28.0519C263.338 27.7584 262.934 27.1346 262.897 26.6576Z" fill="#BC8F59"/>
<path d="M261.246 29.2626C260.806 28.859 260.696 28.4555 260.88 28.0519C261.063 27.7217 261.467 27.5015 261.797 27.5749C262.127 27.6483 262.457 28.0151 262.531 28.4187C262.604 28.8223 262.494 29.336 262.274 29.5195C261.98 29.7763 261.65 29.7029 261.246 29.2626Z" fill="#BC8F59"/>
<path d="M266.236 29.8863C266.236 29.7395 266.383 29.336 266.64 28.9691C266.86 28.5655 267.117 28.2353 267.19 28.2353C267.3 28.2353 267.667 28.3454 267.997 28.4554C268.364 28.6022 268.621 29.0058 268.548 29.3727C268.511 29.7763 268.218 30.1432 267.924 30.2532C267.631 30.3633 267.117 30.3633 266.823 30.2532C266.53 30.1432 266.273 29.9964 266.236 29.8863Z" fill="#BC8F59"/>
<path d="M263.558 33.1151C263.668 32.4913 263.558 31.7942 263.228 31.354C262.751 30.6568 262.787 30.6202 266.09 30.4L265.026 31.2439C264.255 31.9043 264.035 32.3079 264.182 33.005C264.292 33.5187 264.182 34.179 263.888 34.4726C263.631 34.7661 263.301 35.4999 263.191 36.0502C263.008 36.8207 263.118 37.0409 263.631 37.0775C264.108 37.0775 264.072 37.1876 263.448 37.4445C262.971 37.6279 262.347 38.3984 262.054 39.1689C261.723 39.9027 261.503 40.5631 261.503 40.6365C261.503 40.6732 261.87 40.7099 262.347 40.7099C262.787 40.7099 263.521 40.3063 263.998 39.7926C264.585 39.1322 265.062 38.9487 265.723 39.0588C266.334 39.1811 266.701 39.548 266.823 40.1595C266.933 40.6732 266.823 41.3336 266.566 41.6638C266.31 41.9573 265.759 42.2141 265.356 42.2141C264.952 42.2141 264.365 41.9573 264.072 41.6271C263.778 41.2969 263.081 41.0768 262.531 41.0768C261.944 41.0768 261.21 41.4437 260.072 42.7278L260.036 41.7372C260.036 41.1868 259.889 40.7099 259.669 40.7099C259.485 40.7099 259.302 40.4531 259.302 40.1595C259.302 39.866 258.862 39.4991 258.348 39.3524C257.798 39.2056 257.247 38.802 257.064 38.5085C256.88 38.1416 256.99 37.738 257.394 37.3344C257.724 36.9675 258.164 36.7107 258.311 36.674C258.458 36.674 258.825 36.9308 259.118 37.2243C259.449 37.5545 259.595 38.1416 259.485 38.6186C259.375 39.0589 259.485 39.7193 259.742 40.0862C260.072 40.5264 260.403 40.5998 260.77 40.343C261.063 40.1596 261.32 39.4991 261.32 38.912C261.32 38.2883 261.503 37.7747 261.687 37.7747C261.907 37.7747 262.274 37.261 262.494 36.6006C262.897 35.61 262.861 35.3165 262.421 34.8395C262.127 34.546 261.907 34.1791 261.87 34.0323C261.87 33.8856 262.2 33.8122 262.604 33.9222C263.191 34.069 263.374 33.8856 263.558 33.1151Z" fill="#BC8F59"/>
<path d="M259.595 31.9777C259.559 31.6108 259.742 31.1338 260.036 30.8769C260.329 30.6568 260.769 30.4367 261.026 30.4367C261.283 30.4367 261.65 30.7302 261.833 31.0971C262.054 31.5007 262.017 32.0143 261.76 32.4913C261.393 33.115 261.173 33.2251 260.513 32.9683C260.036 32.7848 259.632 32.3446 259.595 31.9777Z" fill="#BC8F59"/>
<path d="M264.989 33.6287L265.686 32.7848C266.09 32.3079 266.677 31.9043 266.97 31.9043C267.3 31.9043 267.777 32.1245 268.034 32.4547C268.328 32.8583 268.364 33.2251 268.107 33.7388C267.924 34.1424 267.631 34.4726 267.484 34.4726C267.337 34.4726 266.713 34.2891 264.989 33.6287Z" fill="#BC8F59"/>
<path d="M243.122 36.5272C243.635 35.9769 244.736 35.1697 245.543 34.8028C246.35 34.4359 247.671 34.1424 248.478 34.1424C249.285 34.1424 250.606 34.4359 251.414 34.8028C252.221 35.1697 253.431 36.0503 254.092 36.8208C254.752 37.5546 255.376 38.5085 255.486 38.9854C255.596 39.4257 255.596 40.6365 255.523 41.6271C255.413 42.6544 255.266 43.8652 255.193 44.3789C255.119 44.9904 255.266 45.3083 255.633 45.3328C255.926 45.3695 256.55 45.4062 257.027 45.4429C257.467 45.4796 258.421 46.03 259.155 46.6904C260.256 47.681 260.513 48.1946 260.659 49.6989C260.806 50.9831 260.696 51.9003 260.256 52.7442C259.926 53.4046 259.155 54.2485 258.495 54.6521C257.834 55.0557 257.137 55.3859 256.917 55.3859C256.734 55.3859 257.101 54.8722 257.761 54.2118C258.385 53.5513 259.082 52.3773 259.302 51.6435C259.559 50.6895 259.559 49.9558 259.265 49.2587C259.082 48.7083 258.531 47.8644 258.091 47.3875C257.651 46.9472 256.697 46.4702 256 46.3601C255.266 46.2501 254.275 46.3602 253.652 46.6537C253.065 46.9105 252.257 47.6443 251.854 48.2313C251.45 48.8551 251.12 49.9924 251.083 50.873C251.083 51.7169 251.267 52.6341 251.524 52.891C251.78 53.1478 252.001 53.6248 252.001 53.9183C252.001 54.432 251.927 54.432 251.414 53.9183C251.083 53.6248 250.827 53.2212 250.827 53.0011C250.827 52.8176 250.46 52.2305 250.019 51.6802C249.579 51.1665 248.735 50.396 248.111 49.9924C247.524 49.5889 246.277 49.0385 245.36 48.8183C244.149 48.4881 243.268 48.4881 242.058 48.7816C241.14 49.0018 239.783 49.6989 238.976 50.3593C238.205 51.0197 237.361 51.937 237.104 52.4507C236.848 52.9643 236.554 54.0284 236.407 54.8356C236.26 55.7895 236.371 56.9636 236.701 58.1376C237.031 59.2383 237.765 60.4491 238.462 61.1462C239.122 61.8067 240.297 62.5771 241.067 62.9074C241.801 63.2009 243.268 63.4577 244.332 63.4577C245.36 63.4577 246.167 63.5311 246.057 63.6411C245.983 63.7512 244.846 63.8612 243.525 63.8612C241.617 63.9346 240.81 63.7512 239.526 63.054C238.645 62.5771 237.398 61.4397 236.738 60.5225C236.04 59.5318 235.49 58.1743 235.343 57.0369C235.123 55.7528 235.233 54.6521 235.6 53.3679C235.93 52.3773 236.701 50.9097 237.361 50.1025C238.022 49.332 239.086 48.4515 239.673 48.1579C240.296 47.8277 241.654 47.4608 242.718 47.2774C244.186 47.0206 244.993 47.094 246.204 47.5342C247.047 47.8278 248.295 48.6349 248.919 49.2587C249.579 49.9191 250.203 50.3594 250.313 50.2493C250.423 50.1392 250.533 49.4788 250.606 48.7816C250.68 47.791 251.047 47.1673 252.074 46.2134C253.065 45.3328 253.652 44.3789 254.019 43.0948C254.385 41.7372 254.422 40.8933 254.165 39.9027C253.982 39.1322 253.358 37.9948 252.808 37.3711C252.257 36.7474 251.34 35.9769 250.79 35.7201C250.24 35.4265 249.065 35.2063 248.222 35.2063C247.231 35.243 246.057 35.5732 245.14 36.0869C244.186 36.6373 243.342 37.5546 242.791 38.5819C242.168 39.7927 241.984 40.5998 242.094 42.0674C242.168 43.0947 242.168 43.9019 242.058 43.8285C241.947 43.7919 241.764 42.948 241.581 41.9573C241.397 40.7833 241.434 39.7192 241.727 38.8754C241.948 38.1782 242.571 37.1143 243.122 36.5272Z" fill="#BC8F59"/>
<path d="M259.852 36.3438C259.229 35.72 259.192 35.4999 259.632 35.023C259.889 34.7294 260.219 34.4726 260.366 34.4726C260.476 34.4726 260.806 34.6928 261.063 35.023C261.32 35.3165 261.43 35.9035 261.32 36.3071C261.21 36.7107 261.026 37.0409 260.88 37.0775C260.733 37.0775 260.256 36.7473 259.852 36.3438Z" fill="#BC8F59"/>
<path d="M264.952 37.1509C264.769 36.7106 264.952 36.3437 265.392 36.0502C265.943 35.6466 266.163 35.6833 266.64 36.1236C266.97 36.4171 267.08 36.8574 266.933 37.2243C266.787 37.5178 266.31 37.7747 265.906 37.7747C265.503 37.7747 265.062 37.4811 264.952 37.1509Z" fill="#BC8F59"/>
<path d="M248.258 39.8293C248.222 39.2423 248.515 38.7286 249.065 38.3617C249.542 38.0315 250.239 37.7747 250.606 37.7747C250.937 37.7747 251.56 38.1049 251.964 38.5085C252.367 38.9121 252.698 39.5358 252.698 39.9027C252.698 40.2329 252.404 40.82 252.037 41.1869C251.707 41.5538 251.23 41.8473 250.973 41.8473C250.606 41.8106 250.606 41.5904 250.973 40.7099C251.304 39.866 251.34 39.5358 250.973 39.1689C250.716 38.9121 250.276 38.802 249.946 38.9854C249.652 39.1322 249.322 39.5725 249.212 39.9761C249.102 40.3797 248.882 40.7099 248.662 40.7099C248.478 40.7099 248.295 40.3063 248.258 39.8293Z" fill="#BC8F59"/>
<path d="M255.486 49.809C255.376 49.4421 255.449 48.8917 255.706 48.5982C255.926 48.268 256.513 48.0846 257.027 48.1213C257.541 48.1946 258.128 48.5248 258.348 48.8917C258.641 49.332 258.641 49.6989 258.385 50.1392C258.201 50.4694 257.834 50.7996 257.577 50.873C257.247 50.9464 257.174 50.7263 257.321 50.1759C257.467 49.6623 257.357 49.222 257.064 49.0752C256.734 48.9284 256.403 49.1119 256.11 49.6255C255.743 50.3593 255.67 50.3593 255.486 49.809Z" fill="#BC8F59"/>
<path d="M239.82 52.6341C240.04 52.0471 240.59 51.3867 241.03 51.1666C241.471 50.9464 242.131 50.8363 242.535 50.9831C242.938 51.0932 243.488 51.4967 243.745 51.9003C244.039 52.3039 244.149 52.7809 244.076 52.9277C243.965 53.0744 243.672 52.9643 243.342 52.6341C243.048 52.3406 242.571 52.0838 242.278 52.0838C241.984 52.0838 241.507 52.3406 241.177 52.6341C240.847 52.9643 240.59 53.3312 240.59 53.478C240.59 53.6247 240.81 54.0283 241.067 54.3585C241.324 54.7254 241.948 55.0556 242.424 55.129C243.305 55.2758 243.305 55.3125 242.608 55.5693C242.204 55.7161 241.544 55.7528 241.14 55.6427C240.737 55.5327 240.186 55.0557 239.893 54.6154C239.526 53.955 239.489 53.5147 239.82 52.6341Z" fill="#BC8F59"/>
<path d="M202.249 74.9049C203.863 74.4646 206.762 73.8777 208.67 73.5474C211.091 73.1805 213.99 73.0704 218.026 73.1805C222.135 73.2906 225.033 73.5841 227.565 74.0978C229.583 74.538 233.325 75.6387 235.82 76.556C238.352 77.4732 240.59 78.3538 240.773 78.5372C241.03 78.7574 240.92 78.8675 240.517 78.8675C240.15 78.8675 236.26 78.0603 231.894 77.033C227.492 76.0424 222.502 75.0517 220.777 74.8315C219.09 74.6481 215.934 74.4647 213.806 74.4647C211.715 74.4647 208.229 74.7215 206.101 75.0517C204.01 75.3452 201.442 75.8589 200.414 76.1524C199.424 76.4459 198.25 76.666 197.846 76.666C197.296 76.6294 197.369 76.5193 198.213 76.1524C198.837 75.8956 200.635 75.3452 202.249 74.9049Z" fill="#BC8F59"/>
<path d="M276.106 85.1048C276.876 84.2609 278.124 83.3803 278.931 83.0501C279.922 82.7199 281.243 82.5731 282.967 82.6832C285.022 82.8299 286.122 83.1235 288.287 84.2242C290.232 85.2149 291.883 86.4256 293.864 88.3702C296.212 90.7183 296.946 91.7457 298.487 95.0111C299.514 97.1391 300.651 100.111 301.018 101.615C301.532 103.707 301.679 105.615 301.642 109.687C301.605 114.163 301.459 115.594 300.615 118.676C300.101 120.694 298.854 123.996 297.826 126.014C296.836 128.032 295.038 130.894 293.79 132.361C292.58 133.792 290.488 135.847 289.131 136.838C287.773 137.865 285.315 139.333 283.701 140.14C282.086 140.91 279.371 141.864 277.647 142.304C275.959 142.708 273.171 143.112 271.52 143.222C269.612 143.368 268.474 143.295 268.474 143.075C268.474 142.891 268.878 142.635 269.318 142.525C269.759 142.415 270.676 142.341 271.336 142.341C271.997 142.341 273.648 142.084 275.005 141.754C276.363 141.424 278.454 140.763 279.665 140.25C280.876 139.736 282.967 138.635 284.251 137.755C285.572 136.911 287.59 135.223 288.727 134.049C289.901 132.875 291.149 131.481 291.552 130.967C291.956 130.454 292.873 128.986 293.607 127.665C294.341 126.344 295.368 124.143 295.882 122.712C296.359 121.318 297.019 118.749 297.313 117.025C297.606 115.301 297.863 112.916 297.826 111.705C297.826 110.494 297.606 108.183 297.313 106.568C297.019 104.954 296.395 102.496 295.918 101.065C295.441 99.6707 294.744 97.9462 294.341 97.2491C293.901 96.4419 292.947 95.6348 291.773 95.0478C290.709 94.4974 289.131 94.0571 287.92 93.9837C286.306 93.8737 285.719 93.9837 284.912 94.6074C284.361 95.0477 283.811 95.3046 283.701 95.1945C283.627 95.0845 283.701 94.6809 283.884 94.2773C284.104 93.8737 284.985 93.1765 285.829 92.7729C287.113 92.1125 287.737 92.0392 291.773 92.4795L290.342 90.9017C289.534 90.0212 288.214 88.7737 287.406 88.0766C286.599 87.4162 285.242 86.5357 284.435 86.1321C283.627 85.6918 282.086 85.2882 280.949 85.1782C279.298 85.0314 278.674 85.1414 277.39 85.8753C276.509 86.3522 275.812 86.8659 275.812 87.0494C275.812 87.1961 275.592 87.3795 275.262 87.4896C274.932 87.5997 274.712 87.453 274.712 87.1227C274.712 86.8292 275.335 85.912 276.106 85.1048Z" fill="#BC8F59"/>
<path d="M46.8668 87.1594C47.7841 86.1687 49.325 84.8112 50.3156 84.1508C51.3063 83.5271 52.1869 83.1235 52.2602 83.307C52.3336 83.4904 51.3796 84.7379 50.2056 86.1321C48.9948 87.4896 47.3071 89.5076 46.4633 90.6083C45.6194 91.709 44.4819 93.6168 43.8949 94.8276C43.3445 96.0384 42.6108 98.093 42.2805 99.4139C41.9503 100.735 41.51 102.056 41.3266 102.349C41.1065 102.716 41.0698 102.202 41.2165 100.881C41.3266 99.7807 41.7669 97.6161 42.1705 96.1118C42.5741 94.6075 43.4179 92.3694 44.0784 91.1953C44.7021 89.9845 45.9862 88.1867 46.8668 87.1594Z" fill="#BC8F59"/>
<path d="M194.287 133.205C194.214 132.985 194.507 132.802 194.911 132.728C195.278 132.655 205.441 132.655 217.439 132.692C232.188 132.728 239.342 132.875 239.416 133.132C239.453 133.425 232.335 133.536 216.925 133.536C203.386 133.536 194.324 133.389 194.287 133.205Z" fill="#BC8F59"/>
<path d="M216.008 136.838C195.975 136.838 185.555 136.691 185.555 136.471C185.555 136.214 195.975 136.104 216.008 136.104C236.077 136.104 246.46 136.214 246.46 136.471C246.46 136.691 236.077 136.838 216.008 136.838Z" fill="#BC8F59"/>
<path d="M215.457 140.14C192.122 140.14 180.051 139.993 180.051 139.773C180.051 139.516 192.122 139.406 215.457 139.406C238.829 139.406 250.863 139.516 250.863 139.773C250.863 139.993 238.829 140.14 215.457 140.14Z" fill="#BC8F59"/>
<path d="M48.0776 146.084C45.9863 144.029 44.2985 142.158 44.2985 141.974C44.2985 141.754 44.4453 141.607 44.5921 141.607C44.7388 141.607 46.0229 142.488 47.4171 143.589C48.848 144.653 51.4898 146.414 53.2876 147.478C55.1221 148.578 58.204 150.156 60.1853 151.037C62.1298 151.917 65.6888 153.165 68.0737 153.862C70.4218 154.522 74.0174 155.439 76.0354 155.843C78.0533 156.283 81.9424 156.907 84.6575 157.237C87.8862 157.641 92.4357 157.861 97.6824 157.861C102.122 157.861 107.662 157.678 109.974 157.421C112.285 157.164 115.917 156.724 118.045 156.43C120.173 156.137 124.063 155.476 126.668 154.962C129.309 154.449 134.409 153.311 138.041 152.394C141.674 151.477 146.04 150.303 147.764 149.826C149.489 149.312 153.268 148.065 156.203 147.074C159.138 146.12 162.991 144.726 164.752 143.992C166.513 143.295 168.017 142.818 168.091 142.965C168.201 143.112 167.724 143.479 167.1 143.772C166.439 144.066 164.935 144.763 163.724 145.313C162.514 145.863 158.808 147.368 155.469 148.689C152.13 149.973 147.691 151.66 145.563 152.358C143.435 153.091 139.582 154.339 136.941 155.146C134.336 155.916 129.603 157.164 126.484 157.861C123.365 158.595 118.889 159.512 116.578 159.916C114.266 160.319 110.047 160.943 107.222 161.273C103.479 161.75 99.4069 161.934 92.179 161.934C83.3734 161.934 81.7957 161.86 77.8699 161.126C75.4483 160.65 71.4858 159.622 69.0642 158.815C66.6427 158.008 63.1939 156.577 61.3594 155.696C59.5615 154.779 56.663 153.091 54.9386 151.954C53.2509 150.78 50.1322 148.175 48.0776 146.084Z" fill="#BC8F59"/>
<path d="M191.352 143.515C179.318 143.479 173.154 143.295 173.3 143.075C173.411 142.818 187.866 142.708 215.494 142.708C243.232 142.708 257.467 142.818 257.467 143.075C257.467 143.295 249.175 143.479 233.546 143.515C220.374 143.589 201.368 143.589 191.352 143.515Z" fill="#BC8F59"/>
<path d="M45.069 157.054C43.5647 155.916 41.2533 153.972 39.9324 152.724C38.6116 151.44 37.731 150.413 37.9144 150.45C38.1346 150.45 39.3454 151.294 40.6662 152.321C41.987 153.385 44.4453 155.146 46.1697 156.247C47.8941 157.347 51.0128 159.145 53.1408 160.172C55.2688 161.236 58.7176 162.778 60.8456 163.548C62.9737 164.355 66.606 165.529 68.9174 166.153C71.2289 166.777 75.1181 167.584 77.5396 167.987C79.9612 168.428 84.841 168.905 88.3632 169.125C92.9128 169.382 97.2788 169.382 103.223 169.088C107.882 168.868 111.735 168.685 111.845 168.685C111.955 168.685 112.285 168.721 112.579 168.758C112.872 168.795 112.322 168.978 111.294 169.161C110.304 169.308 106.671 169.712 103.223 170.042C98.563 170.519 95.0775 170.592 89.4639 170.446C85.3179 170.336 80.6216 170.042 79.0072 169.859C77.3929 169.639 74.4209 169.125 72.403 168.721C70.385 168.318 66.8261 167.4 64.5147 166.667C62.2032 165.969 58.8278 164.722 56.9933 163.915C55.1954 163.144 52.3703 161.713 50.756 160.796C49.1416 159.842 46.5733 158.191 45.069 157.054Z" fill="#BC8F59"/>
<path d="M140.83 160.723C142.151 160.283 143.949 159.806 144.866 159.622C145.783 159.439 147.911 159.292 149.635 159.255C151.36 159.255 153.928 159.475 155.322 159.769C156.753 160.062 159.102 160.906 160.569 161.603C162.037 162.301 163.945 163.621 164.862 164.539C165.779 165.456 166.77 166.703 167.1 167.364C167.43 168.024 167.797 169.235 168.201 171.51L214.87 171.583C246.387 171.656 261.503 171.803 261.467 172.06C261.393 172.317 246.204 172.427 214.87 172.427C169.448 172.427 168.347 172.427 167.724 173.124C167.1 173.821 167.063 173.784 167.21 172.133C167.32 170.923 167.137 169.895 166.586 168.758C166.183 167.841 165.119 166.447 164.238 165.639C163.358 164.869 161.67 163.768 160.459 163.218C159.248 162.704 157.891 162.154 157.45 162.044C157.047 161.934 156.643 161.897 156.643 162.007C156.607 162.08 157.45 162.961 158.441 163.988C159.652 165.199 160.312 166.153 160.349 166.813C160.386 167.364 160.386 168.281 160.349 168.831C160.312 169.382 160.019 170.226 159.725 170.666C159.212 171.473 159.175 171.436 159.175 169.675C159.175 168.464 158.918 167.4 158.441 166.63C158.037 165.969 156.937 164.869 155.983 164.172C154.992 163.475 153.158 162.557 151.837 162.154C150.516 161.713 148.461 161.42 147.251 161.42C146.04 161.42 143.985 161.677 142.664 161.97C141.343 162.301 139.142 162.961 137.711 163.511C136.317 164.025 134.372 164.832 133.419 165.309C132.428 165.786 131.657 166.043 131.657 165.896C131.621 165.749 132.244 165.199 133.015 164.685C133.785 164.172 135.326 163.218 136.427 162.631C137.528 162.007 139.509 161.163 140.83 160.723Z" fill="#BC8F59"/>
<path d="M98.3796 177.197C98.0127 177.197 97.4623 177.013 97.1688 176.83C96.7652 176.573 96.9853 176.463 98.0126 176.463C98.7464 176.463 100.067 176.793 100.948 177.16C101.792 177.564 102.856 178.261 103.259 178.738C103.7 179.215 104.397 180.242 104.837 181.049C105.314 181.966 105.608 183.177 105.608 184.351C105.608 185.342 105.424 186.809 105.241 187.543C105.057 188.314 104.323 189.524 103.7 190.258C103.039 190.992 102.012 191.873 101.388 192.24C100.801 192.606 99.3702 193.047 98.2695 193.267C96.6918 193.524 95.9213 193.487 94.784 193.047C93.9768 192.717 92.6926 191.873 91.9588 191.176C90.6747 189.928 90.5646 189.891 90.3445 190.589C90.2344 190.992 90.0509 191.506 89.9775 191.763C89.9042 192.019 90.1244 192.386 90.4912 192.57C90.8215 192.79 90.8948 192.937 90.6746 192.937C90.4178 192.973 89.7207 193.304 89.097 193.707C88.5099 194.111 87.6661 195.101 87.2625 195.909C86.8222 196.789 86.5287 198.073 86.5287 199.101C86.5654 200.055 86.8589 201.375 87.1891 201.999C87.5193 202.66 88.3265 203.577 88.9135 204.017C89.7207 204.641 90.6012 204.898 92.2156 205.008C94.0501 205.118 94.6372 205.008 95.6645 204.274C96.3616 203.797 97.2788 202.953 97.6824 202.366C98.1961 201.669 98.5263 200.568 98.8565 196.459L99.1134 198.11C99.2968 199.027 99.2968 200.238 99.1501 200.862C99.04 201.449 98.563 202.513 98.1227 203.21C97.7191 203.87 96.6185 204.861 95.7012 205.375C94.6005 205.998 93.4998 206.292 92.3991 206.292C91.4818 206.292 90.0142 205.962 89.097 205.521C88.0697 205.044 87.0056 204.164 86.3452 203.21C85.5014 202.036 85.2078 201.119 85.0977 199.614C85.0244 198.22 85.1711 197.156 86.1618 195.175L84.8043 194.991C84.0338 194.881 82.8597 194.478 82.236 194.074C81.5756 193.67 80.7684 192.717 80.4382 191.946C80.0346 191.065 79.9245 190.075 80.0712 189.121C80.1813 188.204 80.695 187.176 81.3554 186.443C81.9792 185.782 82.8229 185.268 84.1438 185.232L83.3733 185.892C82.9697 186.259 82.346 186.956 82.0158 187.47C81.6489 187.984 81.392 189.084 81.392 189.928C81.392 191.139 81.6123 191.726 82.4195 192.57C82.9698 193.12 83.9971 193.744 84.6942 193.891C85.5747 194.074 86.3819 193.964 87.2625 193.56C88.033 193.193 88.8035 192.496 89.2071 191.689C89.5373 190.992 89.8308 190.001 89.8308 189.488C89.8308 188.974 89.574 188.057 89.2804 187.47C88.8035 186.479 88.8035 186.369 89.2804 186.369C89.574 186.369 89.8308 186.553 89.8308 186.809C89.8308 187.066 90.4545 188.02 91.1883 188.901C91.9588 189.781 93.2429 190.809 94.0501 191.176C94.8573 191.542 96.2515 191.836 97.1688 191.873C98.1594 191.873 99.4435 191.542 100.434 191.029C101.351 190.588 102.599 189.561 103.186 188.791C104.103 187.653 104.36 186.993 104.47 185.122C104.543 183.507 104.433 182.517 103.956 181.599C103.626 180.902 102.966 179.912 102.526 179.435C102.122 178.958 101.131 178.261 100.398 177.894C99.6271 177.49 98.7098 177.197 98.3796 177.197Z" fill="#BC8F59"/>
<path d="M62.1298 183.361C62.1298 182.553 62.4601 181.93 63.1572 181.343C63.7075 180.866 64.3312 180.462 64.5147 180.462C64.6981 180.462 65.2118 180.645 65.6154 180.829C66.019 181.049 66.5326 181.636 66.7895 182.15C67.1564 182.92 67.5599 183.104 68.9174 183.214C69.798 183.251 71.229 183.617 72.0361 183.948C73.4304 184.608 73.5404 184.608 74.7879 183.984C75.485 183.617 76.9526 182.994 78.09 182.627C79.1907 182.26 80.218 181.93 80.3648 181.93C80.5115 181.93 80.6582 182.15 80.6582 182.407C80.6582 182.663 79.631 183.25 78.3468 183.727C77.0994 184.204 75.2649 185.048 74.311 185.562C73.3203 186.112 72.5498 186.663 72.5498 186.809C72.5498 186.956 72.9166 187.617 73.3202 188.277C73.7238 188.937 74.0541 189.781 74.0541 190.185C74.0541 190.662 74.531 191.212 75.4116 191.652C76.5857 192.313 76.8059 192.606 76.8792 193.781C76.9526 194.918 76.8059 195.285 75.962 195.909C75.4116 196.312 74.6779 196.642 74.311 196.642C73.9441 196.642 73.2469 196.202 72.7699 195.688C72.2196 195.175 71.816 194.368 71.816 193.781C71.816 193.23 72.1462 192.423 72.5865 192.019C72.99 191.616 73.3202 191.102 73.3202 190.845C73.3202 190.589 72.99 189.708 72.5865 188.901C72.1829 188.094 71.6693 187.433 71.4858 187.433C71.2657 187.433 70.5686 187.8 69.9082 188.24C69.2478 188.717 68.624 189.231 68.4772 189.451C68.3305 189.671 68.4038 190.332 68.5873 190.919C68.7707 191.542 68.8808 192.46 68.8808 192.937C68.8808 193.45 69.211 194.184 69.6513 194.588C70.0916 195.065 70.3851 195.798 70.3851 196.532C70.3851 197.339 70.1283 197.89 69.5412 198.293C69.101 198.587 68.2938 198.807 67.8168 198.807C67.3032 198.807 66.6061 198.514 66.2392 198.183C65.8356 197.78 65.5787 197.046 65.6154 196.239C65.6154 195.542 65.909 194.661 66.2392 194.331C66.6061 193.964 67.083 193.67 67.3398 193.67C67.5966 193.67 67.8535 193.487 67.9269 193.23C67.9636 192.973 67.9269 192.276 67.8168 191.652C67.7067 191.065 67.4132 190.552 67.193 190.552C66.9729 190.552 65.7988 191.506 64.5513 192.68C63.3039 193.854 62.2766 194.918 62.2766 195.065C62.2766 195.211 62.5334 195.835 62.8269 196.422C63.1571 197.046 63.4139 197.816 63.4139 198.183C63.4139 198.55 63.8909 199.064 64.5147 199.357C65.1017 199.688 65.7989 200.311 66.0557 200.825C66.4593 201.559 66.4226 201.852 65.8722 202.659C65.5053 203.173 64.9182 203.687 64.5147 203.76C64.1111 203.87 63.3406 203.723 62.8636 203.393C62.35 203.1 61.8363 202.403 61.7262 201.852C61.5428 201.119 61.7263 200.531 62.3133 199.724C63.1205 198.66 63.1205 198.624 62.4234 197.413C62.0565 196.752 61.6162 196.129 61.4694 196.055C61.3227 195.945 60.6989 196.459 60.1119 197.156C59.0845 198.367 59.0112 198.624 59.1946 200.568C59.3414 202.146 59.5615 202.806 60.1119 203.136C60.5521 203.43 60.8456 203.98 60.8456 204.677C60.8456 205.411 60.6011 205.9 60.1119 206.145C59.7083 206.365 59.0479 206.439 58.6443 206.328C58.2407 206.255 57.727 205.778 57.5069 205.338C57.1767 204.751 57.1767 204.274 57.5069 203.687C57.727 203.247 58.0572 202.843 58.2774 202.843C58.4608 202.843 58.6443 202.183 58.6443 201.375C58.6443 200.458 58.4609 199.944 58.1674 199.944C57.9105 199.944 57.1034 200.862 56.3329 201.962C55.5624 203.063 54.9753 204.127 54.9753 204.311C54.9753 204.531 55.122 204.677 55.3421 204.677C55.5256 204.677 55.966 205.485 56.3329 206.439C56.6631 207.393 57.3969 208.64 57.9839 209.19C58.5342 209.741 59.0111 210.511 59.0111 210.915C59.0111 211.318 58.6076 212.015 58.1674 212.419C57.7271 212.823 57.0666 213.153 56.6997 213.153C56.3328 213.153 55.7457 212.786 55.3421 212.382C54.9386 211.979 54.5717 211.282 54.5717 210.841C54.5717 210.401 54.9019 209.594 55.3421 209.08C55.7457 208.603 56.076 208.126 56.076 208.09C56.076 208.053 55.8191 207.429 55.5256 206.695C55.1954 205.998 54.7552 205.411 54.4984 205.411C54.2415 205.411 53.581 206.182 52.0401 208.713L52.994 211.208C53.5444 212.566 54.3515 213.96 54.8285 214.327C55.3055 214.694 55.6724 215.244 55.6724 215.611C55.6724 215.978 55.3789 216.528 55.0487 216.895C54.6818 217.262 54.1315 217.556 53.7646 217.556C53.3977 217.556 52.884 217.115 52.5905 216.602C52.0768 215.794 52.0767 215.611 52.6271 214.694C53.1774 213.74 53.1775 213.556 52.4437 211.832C51.93 210.731 51.5264 210.144 51.3063 210.364C51.1595 210.584 50.6091 211.612 50.1322 212.676C49.325 214.437 49.325 214.657 49.8753 215.244C50.2055 215.611 50.6459 216.271 50.8661 216.712C51.1596 217.299 51.1962 217.886 50.9394 218.62C50.7192 219.243 50.2423 219.904 49.8387 220.087C49.4351 220.307 48.7014 220.491 48.2611 220.491C47.8208 220.491 47.0135 220.197 46.5366 219.794C45.8028 219.207 45.6193 218.73 45.6193 217.519C45.6193 216.345 45.8028 215.831 46.5366 215.281C47.0135 214.877 47.7107 214.584 48.0776 214.584C48.4445 214.584 48.8847 214.18 49.1048 213.593C49.2883 213.043 49.6186 212.236 49.8387 211.832C50.0589 211.428 50.0956 210.988 49.9488 210.805C49.7653 210.658 48.9215 210.695 48.0776 210.915C47.2337 211.135 46.5366 211.502 46.5366 211.759C46.5366 212.015 46.1698 212.566 45.6928 213.006C45.0691 213.593 44.6654 213.703 44.0417 213.446C43.6014 213.263 43.1244 212.859 42.9776 212.492C42.8676 212.125 42.8676 211.465 42.9776 211.025C43.1244 210.548 43.6014 210.108 44.1517 209.997C44.6287 209.924 45.4359 210.071 45.8762 210.364C46.3898 210.695 46.8301 210.768 47.087 210.548C47.2704 210.364 48.1876 210.071 49.1048 209.924C50.4991 209.667 50.866 209.41 51.5631 208.163C52.0034 207.356 52.3703 206.585 52.3703 206.439C52.407 206.292 51.8199 206.145 51.1228 206.145C50.2789 206.145 49.4351 206.475 48.738 207.062C48.1143 207.576 47.3071 207.98 46.9035 207.98C46.4999 207.98 45.8394 207.649 45.4358 207.246C45.0323 206.842 44.7021 206.218 44.7021 205.852C44.7387 205.485 45.0689 204.714 45.4358 204.201C45.8394 203.65 46.4999 203.21 46.9035 203.21C47.3071 203.21 48.0776 203.687 48.6279 204.237C49.4351 205.044 49.9855 205.228 51.3797 205.228C53.1041 205.228 53.1774 205.191 54.4249 203.32C55.122 202.256 55.7091 201.229 55.7091 201.008C55.7091 200.825 55.3055 200.568 54.8652 200.495C54.4249 200.385 53.6545 200.311 53.2142 200.311C52.7739 200.311 52.2602 200.568 52.1135 200.898C51.9667 201.229 51.5631 201.632 51.1962 201.816C50.7926 201.999 50.2423 201.926 49.6553 201.559C49.1049 201.229 48.738 200.678 48.738 200.201C48.738 199.761 49.0315 199.064 49.3617 198.734C49.7286 198.367 50.2423 198.073 50.5725 198.073C50.866 198.11 51.453 198.404 51.8566 198.77C52.2969 199.174 53.3976 199.541 56.6263 199.908L58.1674 198C59.0479 196.936 59.745 195.945 59.745 195.798C59.745 195.652 59.0112 195.358 58.1674 195.138C56.8098 194.771 56.553 194.808 56.076 195.432C55.7458 195.798 55.1221 196.312 54.6818 196.569C54.2416 196.789 53.5444 196.973 53.1408 196.973C52.7372 196.973 51.9667 196.532 51.4164 195.982C50.6092 195.138 50.4624 194.771 50.6826 193.67C50.8293 192.973 51.2329 192.093 51.5631 191.763C51.93 191.396 52.7005 191.102 53.3243 191.102C53.9847 191.102 54.7185 191.432 55.1955 191.946C55.599 192.386 56.076 193.047 56.1861 193.414C56.3328 193.781 56.8098 194.074 57.2501 194.074C57.6904 194.074 58.6809 194.258 60.809 194.955L62.8269 192.863C63.9643 191.689 64.8082 190.625 64.7348 190.478C64.6614 190.332 63.9643 190.075 63.1572 189.891C62.0932 189.671 61.6529 189.708 61.3961 190.112C61.1759 190.405 60.6255 190.809 60.1853 191.065C59.5982 191.359 59.0846 191.359 58.4608 191.102C57.9472 190.919 57.3235 190.368 57.1033 189.928C56.7731 189.268 56.8465 188.864 57.3968 187.8C57.8371 187.03 58.4242 186.479 58.9378 186.443C59.3781 186.406 60.0752 186.516 60.4788 186.699C60.8824 186.919 61.3594 187.506 61.5795 187.983C61.763 188.497 62.2033 188.938 62.5702 188.938C62.9371 188.938 63.7809 189.158 64.5147 189.414C65.7621 189.891 65.8356 189.891 68.7341 187.727C70.3484 186.516 71.706 185.379 71.7427 185.195C71.7794 185.012 70.9722 184.645 69.9082 184.315C68.8442 184.021 67.8902 183.764 67.7434 183.764C67.5967 183.764 66.9729 184.278 66.3492 184.865C65.4686 185.745 65.0284 185.929 64.2212 185.782C63.6708 185.672 62.9737 185.342 62.6802 185.012C62.3499 184.718 62.1298 183.984 62.1298 183.361Z" fill="#BC8F59"/>
<path d="M98.1227 185.525C97.7925 185.709 97.7558 185.635 98.0126 185.158C98.1961 184.792 98.4896 184.498 98.673 184.498C98.8565 184.498 99.3702 184.718 99.8105 184.938C100.251 185.158 100.764 185.525 100.911 185.745C101.058 185.966 101.168 186.626 101.168 187.176C101.205 187.727 100.874 188.497 100.471 188.901C100.067 189.304 99.2968 189.635 98.8198 189.635C98.3062 189.635 97.6458 189.414 97.3522 189.084C97.022 188.791 96.8018 188.314 96.8018 187.983C96.8018 187.543 96.9487 187.507 97.7926 187.873C98.3429 188.094 99.0767 188.204 99.4436 188.057C99.8105 187.91 100.104 187.433 100.104 186.883C100.104 186.332 99.8104 185.819 99.3701 185.599C98.9665 185.415 98.4162 185.378 98.1227 185.525Z" fill="#BC8F59"/>
<path d="M82.3093 191.102C82.1992 190.699 82.3093 190.148 82.5294 189.818C82.7496 189.524 83.0798 189.268 83.2632 189.268C83.4467 189.268 83.5935 189.708 83.5935 190.185C83.5935 190.699 83.777 191.102 84.0338 191.102C84.2906 191.102 84.6942 190.809 84.951 190.478C85.3546 189.891 85.3913 189.965 85.3913 190.845C85.3913 191.506 85.1345 191.983 84.6942 192.203C84.205 192.447 83.7157 192.447 83.2265 192.203C82.8229 192.019 82.3827 191.506 82.3093 191.102Z" fill="#BC8F59"/>
<path d="M73.5771 199.504C73.5771 199.174 73.944 198.624 74.421 198.33C75.1548 197.816 75.3383 197.816 75.9987 198.293C76.439 198.624 77.0627 198.954 77.4296 199.027C77.9432 199.174 77.8699 199.394 76.8792 200.311C76.2188 200.898 75.5217 201.375 75.3015 201.375C75.1181 201.375 74.6411 201.118 74.2742 200.752C73.9073 200.421 73.6138 199.834 73.5771 199.504Z" fill="#BC8F59"/>
<path d="M78.7871 199.027C79.0072 199.137 79.3375 198.954 79.5576 198.66C79.7778 198.367 80.1446 198.11 80.3281 198.11C80.5115 198.11 80.8784 198.66 81.0986 199.284C81.3554 199.981 81.9791 200.678 82.5661 200.935C83.1165 201.192 83.5568 201.706 83.5568 202.036C83.5935 202.403 83.3367 202.916 83.0065 203.136C82.6396 203.467 82.2359 203.503 81.7223 203.247C81.1719 202.953 81.0252 202.623 81.172 201.779C81.282 201.082 81.1719 200.458 80.805 200.128C80.3281 199.651 80.1814 199.651 79.631 200.311C79.2274 200.752 79.0806 201.265 79.2641 201.596C79.4108 201.926 79.3007 202.256 78.9705 202.403C78.6403 202.586 78.2367 203.1 78.0533 203.613C77.8331 204.274 77.8698 204.751 78.2367 205.264C78.5303 205.668 78.7871 206.145 78.7871 206.365C78.8237 206.549 78.5669 206.512 78.2367 206.255C77.9432 206.035 77.5396 205.888 77.3195 205.998C77.136 206.108 76.9526 206.732 76.9526 207.356C76.9159 208.016 77.1727 208.823 77.5029 209.117C77.8332 209.41 78.09 209.777 78.0533 209.924C78.0533 210.108 77.7965 209.961 77.5029 209.667C77.1727 209.337 76.7691 209.227 76.5123 209.447C76.2555 209.631 75.7051 209.631 75.3015 209.484C74.6044 209.264 74.6044 209.227 75.4116 209.007C75.8519 208.86 76.3289 208.456 76.4756 208.09C76.5857 207.759 76.5123 207.172 76.2922 206.806C76.0353 206.439 75.9986 206.182 76.2188 206.182C76.4389 206.182 76.8792 205.595 77.2461 204.861C77.8698 203.54 77.8331 203.503 77.136 203.026C76.4022 202.513 76.4022 202.513 77.2461 202.513C77.8331 202.513 78.2001 202.183 78.567 201.302C78.8605 200.568 78.9339 199.871 78.7504 199.467C78.5303 199.064 78.5669 198.917 78.7871 199.027Z" fill="#BC8F59"/>
<path d="M87.8863 200.421C87.8863 199.944 88.2164 199.394 88.73 199.027C89.207 198.734 89.6473 198.477 89.684 198.477C89.7207 198.477 89.7207 199.101 89.684 199.834C89.6106 201.045 89.7208 201.229 90.4546 201.302C91.0049 201.375 91.335 201.192 91.4451 200.678C91.5552 200.275 91.8121 199.944 91.9955 199.944C92.2157 199.944 92.3624 200.238 92.3624 200.568C92.3624 200.935 92.0689 201.522 91.702 201.889C91.3718 202.256 90.6747 202.513 90.161 202.513C89.6473 202.513 88.9502 202.219 88.5833 201.852C88.2164 201.522 87.923 200.862 87.8863 200.421Z" fill="#BC8F59"/>
<path d="M73.944 204.09C73.6505 203.797 73.5771 203.393 73.7606 203.063C73.944 202.696 74.3843 202.513 74.8613 202.586C75.3016 202.659 75.6684 202.916 75.6684 203.21C75.6684 203.503 75.375 203.907 75.0447 204.127C74.5678 204.421 74.2742 204.421 73.944 204.09Z" fill="#BC8F59"/>
<path d="M79.3375 205.081C79.2274 204.861 79.2641 204.384 79.3741 203.98C79.5576 203.393 79.7044 203.32 80.2914 203.613C80.695 203.834 81.0252 204.311 81.0252 204.714C80.9885 205.191 80.7317 205.448 80.2547 205.448C79.8511 205.448 79.4475 205.265 79.3375 205.081Z" fill="#BC8F59"/>
<path d="M72.6599 207.833C72.4031 207.539 72.2929 206.952 72.403 206.549C72.5131 206.108 72.88 205.815 73.3937 205.815C73.834 205.815 74.4944 206.035 74.8246 206.292C75.4483 206.695 75.4116 206.769 74.6411 207.539C74.2008 207.98 73.6871 208.383 73.467 208.383C73.2836 208.42 72.8801 208.163 72.6599 207.833Z" fill="#BC8F59"/>
<path d="M78.7138 208.933C78.5303 208.64 78.567 208.053 78.7504 207.686C79.0073 207.172 79.3007 207.062 79.8878 207.209C80.2914 207.356 80.7317 207.796 80.8784 208.2C80.9885 208.677 80.8418 209.08 80.4015 209.374C79.9979 209.594 79.5576 209.741 79.3375 209.667C79.154 209.594 78.8605 209.264 78.7138 208.933Z" fill="#BC8F59"/>
<path d="M72.1095 211.025C72.0728 210.658 72.1829 210.218 72.3664 210.108C72.5498 209.961 72.99 209.851 73.3569 209.851C73.7238 209.851 74.0174 210.108 74.0174 210.474C74.0174 210.841 73.8339 211.318 73.5771 211.575C73.3203 211.795 72.8801 211.942 72.6599 211.832C72.4031 211.759 72.1462 211.392 72.1095 211.025Z" fill="#BC8F59"/>
<path d="M78.5303 212.639C78.2735 212.529 78.0533 212.015 78.0533 211.502C78.0533 210.988 78.2735 210.585 78.5303 210.585C78.7504 210.548 79.2274 210.805 79.5209 211.135C79.9979 211.649 79.9979 211.795 79.5209 212.309C79.2274 212.602 78.7504 212.749 78.5303 212.639Z" fill="#BC8F59"/>
<path d="M74.3477 213.556C74.311 213.153 74.6412 212.566 75.1181 212.272C75.7052 211.869 76.1454 211.832 76.6224 212.052C77.026 212.272 77.4296 212.786 77.5396 213.226C77.7231 213.85 77.5397 214.254 76.9159 214.731C76.439 215.097 75.9253 215.391 75.7785 215.354C75.5951 215.354 75.2282 215.097 74.9347 214.804C74.6411 214.51 74.3477 213.923 74.3477 213.556Z" fill="#BC8F59"/>
</g>
<g filter="url(#filter1_d_202_56)">
<path d="M200.746 168.745H188.743V166.076C189.553 165.21 190.301 164.433 190.988 163.746C192.495 162.258 193.596 161.091 194.293 160.244C194.99 159.387 195.498 158.502 195.818 157.589C196.148 156.676 196.312 155.635 196.312 154.468C196.312 153.442 196.063 152.613 195.564 151.983C195.065 151.352 194.401 151.036 193.573 151.036C192.989 151.036 192.523 151.098 192.175 151.22C191.826 151.342 191.506 151.526 191.214 151.771L190.607 154.51H189.379V150.203C190.132 150.034 190.866 149.893 191.582 149.78C192.306 149.657 193.093 149.596 193.94 149.596C196.02 149.596 197.611 150.024 198.713 150.881C199.824 151.738 200.379 152.957 200.379 154.539C200.379 155.527 200.215 156.426 199.885 157.236C199.556 158.036 199.033 158.817 198.318 159.58C197.611 160.343 196.199 161.585 194.081 163.308C193.271 163.967 192.396 164.716 191.454 165.554H200.746V168.745ZM215.348 159.199C215.348 165.751 213.277 169.027 209.135 169.027C207.139 169.027 205.633 168.19 204.616 166.514C203.599 164.838 203.091 162.4 203.091 159.199C203.091 156.064 203.599 153.668 204.616 152.011C205.633 150.345 207.177 149.511 209.248 149.511C211.244 149.511 212.759 150.335 213.795 151.983C214.83 153.621 215.348 156.026 215.348 159.199ZM211.211 159.199C211.211 156.261 211.046 154.153 210.716 152.872C210.387 151.583 209.869 150.938 209.163 150.938C208.466 150.938 207.967 151.559 207.666 152.802C207.374 154.044 207.228 156.177 207.228 159.199C207.228 162.268 207.379 164.438 207.68 165.709C207.981 166.98 208.476 167.615 209.163 167.615C209.86 167.615 210.373 166.966 210.702 165.666C211.041 164.358 211.211 162.202 211.211 159.199ZM229.668 168.745H217.664V166.076C218.474 165.21 219.222 164.433 219.91 163.746C221.416 162.258 222.517 161.091 223.214 160.244C223.911 159.387 224.419 158.502 224.739 157.589C225.069 156.676 225.233 155.635 225.233 154.468C225.233 153.442 224.984 152.613 224.485 151.983C223.986 151.352 223.322 151.036 222.494 151.036C221.91 151.036 221.444 151.098 221.096 151.22C220.747 151.342 220.427 151.526 220.135 151.771L219.528 154.51H218.3V150.203C219.053 150.034 219.787 149.893 220.503 149.78C221.228 149.657 222.014 149.596 222.861 149.596C224.942 149.596 226.533 150.024 227.634 150.881C228.745 151.738 229.3 152.957 229.3 154.539C229.3 155.527 229.136 156.426 228.806 157.236C228.477 158.036 227.954 158.817 227.239 159.58C226.533 160.343 225.12 161.585 223.002 163.308C222.192 163.967 221.317 164.716 220.376 165.554H229.668V168.745ZM242.942 165.003V168.745H239.143V165.003H231.306V162.701L239.835 149.709H242.942V162.108H244.834V165.003H242.942ZM239.143 156.502C239.143 155.447 239.19 154.449 239.284 153.508L233.65 162.108H239.143V156.502Z" fill="#F2D496"/>
</g>
<g filter="url(#filter2_d_202_56)">
<path d="M278.218 169.349C278.48 168.682 278.813 167.797 279.655 167.749C279.734 168.212 279.779 168.684 279.709 169.151C278.202 172.449 279.286 176.022 281.385 177.301C281.025 176.522 280.432 175.85 280.217 175.01C280.269 172.252 281.769 171.859 284.533 170.003C285.962 169.036 285.871 168.961 286.726 168.817C286.751 168.931 286.803 169.163 286.827 169.278C285.432 171.833 282.88 171.463 282.106 173.334C281.515 174.641 282.45 175.955 282.949 177.129C283.067 176.278 282.99 175.377 283.309 174.565C284.008 173.763 285.83 172.931 286.741 172.375C287.018 171.967 287.237 171.523 287.474 171.093C287.69 170.883 287.969 170.774 288.246 170.656C288.544 171.499 288.351 172.426 287.701 173.049C288.17 173.095 289.045 173.273 288.811 173.941C287.519 174.15 286.821 173.141 284.641 174.759C283.818 175.501 284.117 176.729 284.054 177.71C284.845 176.426 285.406 174.651 286.216 175.888C285.451 176.486 285.076 177.52 285.133 178.459C285.638 179.021 286.516 178.956 287.214 179.022C288.65 179.105 288.489 178.94 289.657 180.261C290.672 180.1 291.572 179.595 292.451 179.088C293.377 178.8 294.395 179.466 295.251 178.92C296.387 178.257 297.48 176.083 297.914 178.731C297.928 179.453 298.524 179.945 298.766 180.59C298.272 181.029 297.654 181.246 297.028 181.407C295.549 183.535 295.429 182.969 295.866 183.837C296.256 184.474 297.144 185.478 298.165 186.213C299.388 187.107 299.855 187.026 300.797 190.153C300.501 189.85 300.212 189.54 299.928 189.228C300.308 190.382 300.699 191.592 300.448 192.82C300.259 192.575 300.091 192.324 299.911 192.078C300.23 193.746 299.924 194.654 299.85 194.93C299.782 194.727 299.644 194.322 299.575 194.12C299.301 195.41 299.083 196.88 297.866 197.656C297.938 197.292 298.041 196.928 298.132 196.566C297.942 196.783 297.753 196.999 297.569 197.215C298.046 198.16 298.929 198.773 299.679 199.484C301.051 199.561 301.15 199.566 302.243 199.515C304.722 199.379 303.72 200.831 306.909 203.476C306.935 203.695 306.971 203.91 307.007 204.128C306.331 205.553 305.629 205.324 304.988 206.254C304.575 208.847 305.605 208.664 303.831 210.515C302.2 212.147 302.375 214.196 298.445 217.005C298.454 216.048 298.162 215.138 297.928 214.223C297.731 213.49 298.568 213.24 299.065 212.981C299.667 212.565 300.587 212.847 300.988 212.133C304.046 207.88 303.296 209.417 303.455 207.596C302.481 208.48 301.5 209.353 300.504 210.208C299.592 211.153 298.546 212.8 296.73 213.06C296.911 211.9 296.619 210.745 296.633 209.586C296.739 209.332 296.861 209.042 297.197 209.06C300.851 208.56 300.152 208.706 301.568 207.537C302.177 206.998 302.818 206.477 303.309 205.819C303.338 204.999 302.893 205.294 299.082 202.397C289.495 204.047 290.454 204.434 289.947 202.289C281.026 205.992 278.145 202.583 276.165 202.722C275.174 203.37 274.89 204.673 273.963 205.41C271.322 207.693 266.723 206.103 264.909 209.61C262.734 213.617 259.456 215.144 260.448 216.084C260.91 216.755 261.637 217.159 262.28 217.632C262.726 217.933 262.836 218.488 263.018 218.958C262.125 219.512 261.114 219.82 260.118 220.121C257.391 216.586 257.471 216.976 257.575 214.191C258.014 214.194 258.46 214.265 258.9 214.17C259.234 213.918 259.486 213.576 259.779 213.276C260.668 212.424 261.459 212.249 261.98 210.157C262.614 207.606 262.288 205.81 262.381 204.646C266.9 203.72 267.466 201.934 267.83 199.78C258.075 203.071 257.712 206.895 246.457 222.013C246.027 222.393 246.011 222.93 246.121 223.452C245.932 223.299 245.743 223.149 245.558 222.997C245.829 223.896 246.011 224.82 246.085 225.755C245.886 225.468 245.694 225.179 245.504 224.888C245.626 226.178 245.671 227.659 244.686 228.655C244.675 228.288 244.695 227.919 244.701 227.551C244.559 227.837 244.418 228.123 244.281 228.408C244.979 229.107 245.86 229.576 246.735 230.015C247.932 230.33 250.264 228.747 251.272 229.772C252.586 231.107 254.291 232.118 254.97 232.616C255.133 233.82 254.082 234.603 253.465 235.485C253.612 236.386 253.849 237.268 254.001 238.166C254.044 239.142 253.252 239.849 252.933 240.711C251.545 244.358 252.193 244.188 249.493 247.489C248.962 245.277 247.817 244.693 248.482 244.04C249.068 243.512 249.659 242.846 250.505 242.8C251.353 241.409 251.803 239.817 252.571 238.38C252.48 237.989 252.389 237.598 252.3 237.207C251.576 238.215 250.87 239.236 250.111 240.218C249.271 241.625 248.624 243.351 246.968 243.995C246.844 243.025 246.522 242.101 246.239 241.172C245.949 239.683 246.044 240.351 249.456 238.81C250.348 237.765 251.143 236.635 251.839 235.449C251.619 235.161 251.404 234.825 251.024 234.745C249.606 234.314 248.29 233.616 246.901 233.117C246.901 233.117 243.695 234.534 239.139 236.257C238.419 236.367 238.223 235.45 237.957 234.965C236.271 236.224 234.357 237.141 232.407 237.907C228.092 239.573 225.017 237.541 224.333 238.77C223.76 239.867 223.554 241.192 222.622 242.08C220.095 244.44 215.932 244.074 215.055 247.969C213.739 252.342 211.794 253.015 212.049 254.715C212.639 255.455 213.601 255.674 214.413 256.074C214.892 256.289 215.127 256.78 215.377 257.211C214.6 257.9 213.708 258.437 212.815 258.957C210.425 257.064 209.203 256.304 209.07 253.727C209.472 253.599 209.925 253.61 210.299 253.399C210.759 252.795 211.061 252.083 211.575 251.515C212.203 250.83 212.369 249.879 212.416 248.984C212.58 245.063 211.017 243.537 211.93 243.202C218.025 240.045 215.245 237.689 215.368 233.548C212.11 233.41 217.641 233.748 200.545 229.796C202.705 232.713 203.776 231.71 200.639 234.454C200.568 235.318 200.603 236.184 200.548 237.046C200.447 237.888 199.655 238.363 199.189 238.997C197.208 241.729 198.11 241.844 194.431 244.764C194.326 242.481 193.585 242.005 194.106 241.439C194.782 240.966 195.563 240.609 196.398 240.563C196.819 240.214 199.039 237.116 199.146 236.935C199.248 236.574 199.159 236.19 199.159 235.82C198.258 236.691 197.288 237.486 196.359 238.325C195.356 239.421 194.401 240.765 192.814 240.996C193.035 239.219 192.309 237.297 193.126 237.212C194.133 237.089 195.121 236.823 196.14 236.776C197.192 235.95 198.222 235.086 199.119 234.091C198.966 233.812 198.871 233.468 198.567 233.314C197.301 232.578 196.161 231.652 194.948 230.836C192.368 231.498 189.72 231.832 187.087 232.192C186.478 232.052 186.511 231.262 186.371 230.777C183.495 231.933 179.863 232.837 176.831 232.141C174.689 231.651 173.474 230.683 172.869 231.474C172.151 232.342 172.133 232.814 171.006 233.891C168.322 235.798 165.045 234.445 162.786 237.352C162.692 237.504 161.261 240.184 159.504 241.666C158.972 242.185 158.322 242.727 158.199 243.5C158.499 244.457 159.533 244.88 160.256 245.478C160.655 246.124 160.611 246.1 160.753 246.609C160.199 246.996 159.454 247.246 158.05 247.719C155.416 244.668 155.489 244.158 155.626 242.045C155.997 242.076 156.37 242.106 156.745 242.134C157.367 241.579 157.918 240.947 158.579 240.434C159.896 239.404 160.168 236.504 160.182 234.843C160.181 234.149 159.869 233.006 160.504 232.93C162.042 232.603 163.607 231.98 164.613 230.711C153.885 233.632 150.668 237.654 144.01 243.13C143.335 243.684 143.341 243.685 143.12 243.901C142.831 244.614 142.929 244.715 142.239 245.57C142.224 245.227 142.231 244.886 142.231 244.545C142.095 244.804 141.958 245.064 141.83 245.326C142.48 245.997 143.302 246.454 144.124 246.882C144.741 247.301 147.049 246.281 148.336 246.397C149.062 246.845 150.296 248.33 152.376 249.444C152.773 250.588 151.918 251.255 151.115 252.239L151.031 252.429C150.976 253.739 151.978 255.132 151.145 256.353C149.318 258.939 150.569 260.105 146.946 264.415C146.196 261.966 145.536 261.887 145.81 261.141C146.252 260.641 146.8 260.245 147.344 259.866C147.551 259.823 147.76 259.782 147.969 259.743C148.515 259.017 149.092 257.281 149.875 255.734C150.193 255.244 149.899 254.69 149.811 254.181C148.994 255.291 148.155 256.389 147.377 257.529C146.538 258.971 146.015 260.289 144.445 260.9C144.333 259.755 143.778 258.717 143.615 257.589C143.379 256.526 146.517 256.415 147.206 255.467C147.985 254.489 148.749 253.49 149.35 252.388C148.591 251.507 149.669 252.274 144.387 250.006C142.029 251.129 138.276 252.59 136.401 253.248C135.921 252.912 135.682 252.373 135.47 251.849C133.899 253.05 131.311 254.306 129.442 254.909C125.128 256.33 122.374 254.278 121.778 255.659C120.389 258.377 121.507 258.775 115.909 261.098C112.27 262.538 113.091 264.676 110.758 268.542C110.143 269.398 109.501 270.28 109.324 271.349C109.934 272.06 110.805 272.417 111.654 272.752C112.199 272.944 112.481 273.473 112.766 273.933C112.012 274.67 111.082 275.18 110.176 275.703C107.528 273.5 106.768 273.257 106.458 270.376C107.922 270.239 107.57 270.313 108.236 269.311C108.937 268.002 110.995 267.362 109.106 260.465C109.009 259.966 109.664 259.841 109.983 259.638C115.078 257.14 112.96 253.55 112.805 251.229C106.079 250.116 99.4015 248.706 92.6465 247.768C90.4642 247.452 88.2565 247.413 86.0704 247.13C78.5982 246.283 72.4488 244.556 69.2171 249.036C69.6927 249.227 70.1432 249.482 70.4731 249.887C69.8138 251.352 70.1602 250.725 68.5644 251.281C68.4355 252.293 68.7475 253.288 68.9689 254.264C69.5542 256.891 71.2756 257.822 72.3952 258.626C72.87 258.944 72.338 259.764 71.8426 259.506C68.4403 257.966 67.8818 254.551 67.497 252.931C66.756 253.454 65.7893 253.443 65.0389 253.942C64.2617 254.441 63.5336 255.011 62.7568 255.512C62.8955 255.919 62.8365 256.728 63.4688 256.644C64.2014 256.431 64.6905 255.633 65.5289 255.678C65.9491 255.605 66.0306 256.079 66.1658 256.364C67.0413 256.386 68.2611 256.323 68.6351 257.321C68.9963 258.577 68.7133 259.898 68.7937 261.183C68.8953 262.946 69.1705 264.697 69.4771 266.436C75.3641 263.679 72.1885 258.186 74.8786 253.662C75.7585 252.121 77.7097 251.312 79.4202 251.785C82.4937 252.652 82.7607 257.262 80.2692 257.98C78.6281 258.454 77.5723 255.202 79.996 255.694C79.7421 255.352 79.5084 254.776 78.9847 254.865C77.2538 255.362 76.6342 257.222 80.0702 259.761C82.2088 261.39 82.2697 266.273 79.313 268.322C79.5036 268.573 79.7587 268.813 79.7832 269.148C79.8339 270.091 78.5182 270.806 77.789 270.176C77.4387 269.939 77.6706 269.527 77.694 269.199C77.1473 269.008 76.6007 269.197 76.3313 269.72C77.4859 271.123 78.5736 272.65 80.1969 273.555C81.2958 274.375 85.5048 273.839 86.1956 271.456C86.6158 270.304 85.209 269.119 84.1255 269.57C83.8144 269.7 83.5783 270.069 83.6783 270.409C84.0595 270.58 84.6018 270.489 84.8498 270.887C84.9434 271.339 84.5821 271.64 84.2811 271.904C83.8632 271.788 83.4156 271.71 83.0612 271.447C82.0758 270.747 82.589 269.138 83.5131 268.635C84.5942 268.33 85.8192 268.783 86.5717 269.595C87.2087 270.323 87.1057 271.363 87.066 272.264C92.8544 267.103 91.0537 260.994 87.8274 260.211C88.2386 261.262 88.6687 262.517 88.0782 263.588C87.3793 264.72 85.8817 265.188 84.6128 264.983C81.9236 264.424 80.9855 260.342 83.1769 258.671C84.997 257.348 87.7088 257.608 89.3862 259.059C92.0178 261.24 93.1623 266.184 90.9125 269.862C87.3839 275.717 80.5286 276.516 78.7424 276.976C48.8525 283.236 48.6853 285.275 45.2991 281.715C43.2642 279.523 44.1832 277.279 45.9702 276.912C49.0598 276.15 49.9982 281.685 45.7237 280.178C48.3725 283.141 49.0794 282.443 50.9746 282.091C48.5903 280.857 48.3115 277.775 50.9481 276.91C51.5957 276.719 52.1639 277.257 52.5363 277.721C53.466 278.89 51.2924 280.657 50.9528 279.138C51.0384 278.731 51.5096 278.606 51.7868 278.355C51.6063 278.206 51.4967 277.957 51.2674 277.878C50.1236 277.675 49.2438 279.373 50.1276 280.164C50.7734 280.797 51.8826 281.264 52.7172 280.748C54.0869 279.112 54.5212 276.958 54.9833 274.932C54.7431 274.838 54.4995 274.747 54.2582 274.658C54.0881 274.783 53.918 274.909 53.7479 275.035C53.8746 275.291 54.1716 275.546 54.0139 275.857C53.6725 276.713 52.1311 276.556 51.9931 275.633C51.8638 275.234 52.2121 274.934 52.3924 274.622C49.0731 275.491 45.6571 276.066 43.4838 273.384C40.8951 270.099 40.4436 266.375 43.1106 262.972C44.7139 260.978 43.0923 256.515 40.7293 256.832C39.8127 256.962 38.8603 257.516 38.5406 258.424C38.2816 259.165 38.6388 259.917 38.9212 260.595C38.9832 260.014 38.9211 259.384 39.2264 258.859C39.8841 257.702 42.3128 257.175 42.8339 259.179C43.3242 261.052 42.5029 263.496 39.71 263.195C35.2053 262.9 33.7968 255.029 38.87 253.215C38.552 252.722 38.2997 252.008 37.5763 252.096C37.6466 251.978 37.7155 251.862 37.7844 251.747C37.4288 251.693 37.0756 251.633 36.721 251.576C37.3924 250.63 38.6342 250.604 39.5651 250.065C39.4555 249.899 39.3459 249.733 39.2364 249.567C39.9136 249.198 40.7304 249.183 41.3982 248.839C41.8881 247.962 43.0129 248.174 43.7819 248.505C43.3691 248.766 42.9663 249.053 42.6638 249.442C42.8157 249.453 43.1216 249.474 43.2754 249.484C43.297 249.626 43.3417 249.909 43.363 250.05C47.695 251.048 49.3353 252.214 49.7502 257.762C50.9849 258.701 52.2398 259.613 53.4818 260.543C55.467 257.059 52.9652 254.014 52.8291 251.237C51.9861 251.717 51.0371 251.197 50.6394 250.402C51.0999 250.19 51.4925 250.518 51.9152 250.654C52.2701 250.606 52.3788 250.166 52.3869 249.864C52.0673 249.33 51.5408 248.929 51.4077 248.291C50.2995 248.642 50.7258 248.461 50.1377 247.908C50.2492 247.737 50.3611 247.567 50.4731 247.397C50.4082 247.126 50.347 246.855 50.2894 246.583C49.8783 247.823 49.2006 248.964 48.2679 249.882C48.3159 250.27 48.5782 250.788 48.1709 251.072C47.1675 251.72 45.62 250.638 46.1072 249.461C46.3322 248.747 47.1754 248.887 47.7017 249.138C49.0512 244.195 48.0877 241.496 53.7314 241.216C54.6062 241.259 55.0073 242.184 55.4188 242.824C55.6798 242.677 55.9409 242.53 56.201 242.38C56.7977 242.695 57.3431 243.218 57.4895 243.897C57.43 244.325 57.1785 244.694 56.9929 245.075C57.3128 245.148 57.6314 245.223 57.9488 245.303C57.9114 245.603 57.8733 245.901 57.8336 246.2C59.2331 246.399 58.9413 246.205 59.9224 247.474C60.3453 248.089 60.9614 248.603 61.1388 249.357C61.3088 249.848 61.3412 250.416 61.6881 250.828C62.1878 251.204 62.7272 250.655 62.9852 250.248C63.194 249.72 62.5898 249.447 62.273 249.156C62.6131 249.242 63.0041 249.226 63.2968 249.445C63.2907 249.592 63.2783 249.885 63.2722 250.032C63.3321 250.108 63.3924 250.186 63.4523 250.262C63.8777 249.841 64.4401 250.067 64.9311 250.175C65.8912 248.677 66.2003 248.777 67.9219 248.751C71.5812 242.739 80.5168 245.667 88.7491 246.284C91.4848 246.438 95.0626 246.807 110.889 249.804C110.846 249.57 110.805 249.338 110.766 249.106C111.057 249.176 111.35 249.25 111.641 249.324C111.062 248.694 110.791 247.885 110.769 247.039C111.061 247.383 111.39 247.699 111.742 247.985C111.514 247.276 110.955 246.399 111.647 245.765C111.71 245.986 111.834 246.428 111.897 246.648C112.22 246.093 112.422 245.439 112.951 245.032C113.226 245.813 112.47 246.409 112.62 247.17C112.73 247.915 112.822 248.831 113.542 249.254C114.216 248.955 114.64 248.296 115.195 247.832C116.599 246.642 119.663 245.163 123.187 245.294C124.414 245.321 128.526 244.801 130.023 243.688C131.682 242.56 131.667 242.179 132.221 241.615C133.316 240.585 134.983 241.135 133.879 235.131C130.354 234.559 130.065 234.023 129.099 232.606C126.285 234.59 126.779 234.581 125.483 234.845C126.472 231.671 127.561 231.845 129.296 231.508C128.997 231.204 128.72 230.628 128.2 230.801C123.292 231.602 123.302 232.099 120.901 231.1C119.246 229.781 116.025 230.787 115.088 228.735C114.652 227.763 114.192 226.718 114.295 225.628C115.223 226.181 115.194 227.407 115.914 228.138C116.581 229.03 117.803 228.767 118.744 229.088C117.077 226.396 115.952 222.589 117.757 220.291C118.681 221.015 118.173 222.253 118.152 223.224C118.146 225.668 119.356 228.392 121.753 229.324C121.25 228.662 120.584 228.123 120.163 227.401C119.4 224.575 121.291 223.672 123.384 221.357C123.857 220.836 124.329 220.309 124.887 219.872C124.992 219.919 125.205 220.011 125.31 220.059C125.347 220.741 124.773 221.571 124.276 222.225C123.367 223.195 121.914 223.798 121.609 225.211C121.275 226.634 122.481 227.749 123.235 228.8C122.937 225.976 122.349 226.407 125.465 223.76C126.492 223.003 125.971 221.626 127.07 221.364C127.495 222.116 127.495 223.05 126.993 223.766C127.421 223.801 128.07 223.665 128.262 224.18C128.542 224.704 127.146 224.606 126.55 224.632C123.16 225.834 124.134 227.728 124.459 229.101C125.339 226.609 124.984 226.289 126.175 226.857C125.494 227.623 125.516 228.673 125.547 229.632C126.606 230.162 127.763 229.656 128.858 229.576C129.513 229.604 130.002 230.117 130.526 230.45C131.081 230.13 131.482 229.944 132.149 229.368C132.446 229.111 132.712 228.812 133.057 228.613C133.724 228.302 134.5 228.455 135.187 228.219C136.25 227.657 136.486 226.345 137.269 226.005C137.661 226.092 137.872 226.455 138.098 226.752C138.144 227.539 138.746 228.018 139.264 228.522C139.475 229.307 138.412 229.566 137.937 229.956C137.609 230.529 137.381 231.157 137.059 231.736C136.294 232.847 141.364 234.968 141.493 235.047C142.052 235.429 142.473 236 143.51 237.667C143.152 237.456 142.793 237.24 142.439 237.027C143.322 238.583 143.385 238.406 143.737 240.302C143.45 240.162 143.214 239.941 142.979 239.729C143.256 240.349 143.417 241.009 143.554 241.672C143.45 241.82 143.35 241.966 143.25 242.114L143.061 241.794C143.068 241.957 143.084 242.287 143.093 242.45L149.173 237.322C153.885 233.415 159.207 230.832 165.085 229.474C165.668 227.46 164.992 228.183 165.689 224.631C165.173 224.593 165.057 224.619 164.375 224.333C164.051 224.017 163.928 223.587 163.953 223.144C164.243 223.269 164.532 223.399 164.821 223.529C164.316 222.889 164.306 222.081 164.393 221.309C164.637 221.649 164.884 221.989 165.138 222.322C165.065 221.636 164.691 220.623 165.524 220.254C165.523 220.563 165.528 220.873 165.527 221.182C165.845 220.772 166.164 220.362 166.504 219.971L166.865 219.847C166.787 220.141 166.784 220.473 166.587 220.722C165.902 221.543 165.948 222.794 166.364 223.726C166.694 224.023 167.04 223.647 167.346 223.505C169.535 221.936 172.867 221.53 175.086 221.841C176.902 222.392 178.808 222.52 180.699 222.475C182.379 222.492 184.021 221.788 185.277 220.693C187.214 219.395 187.702 221.111 188.305 214.924C185.361 213.619 185.213 213.555 184.373 211.577C180.807 213.145 181.568 212.982 180.541 212.854C182.221 210.433 182.5 210.536 184.803 210.591C184.554 210.264 184.391 209.669 183.872 209.728C179.304 209.489 178.598 209.988 176.414 207.902C175.078 207.107 173.193 207.045 172.326 205.585C171.951 204.485 171.707 203.214 172.087 202.086C172.787 202.813 172.52 203.914 173.037 204.733C173.478 205.71 174.685 205.705 175.484 206.24C174.921 204.611 174.523 202.858 174.823 201.133C175.018 199.932 175.299 198.573 176.375 197.841C177.163 198.774 176.236 199.84 176.096 200.826C175.666 203.032 176.214 205.75 178.234 207.011C177.169 205.035 176.73 205.15 177.5 203.098C177.948 201.901 179.257 201.463 180.208 200.753C181.244 200.165 182.105 199.234 183.281 198.918C183.307 199.137 183.32 199.354 183.321 199.574C182.754 200.416 181.962 201.117 181.03 201.524C177.602 203.092 178.739 204.742 179.745 206.887C179.81 206.056 179.728 205.174 180.062 204.393C180.886 203.593 181.955 203.114 182.95 202.561C183.717 202.2 184.041 200.429 184.758 200.808C185.087 201.556 184.775 202.397 184.237 202.957C184.679 203.069 185.385 203.122 185.323 203.755C184.749 204.096 184.076 203.62 183.452 203.711C180.407 204.159 180.727 205.721 180.81 207.347C181.211 206.612 181.581 205.856 182.077 205.178C182.345 205.309 182.596 205.471 182.836 205.653C182.04 206.231 181.855 207.221 181.687 208.124C182.535 208.727 183.604 208.616 184.583 208.699C185.274 208.741 185.68 209.385 186.093 209.856C186.966 209.697 187.756 209.283 188.512 208.835C189.257 208.386 190.127 208.864 190.924 208.755C192.101 208.445 192.796 206.84 193.483 207.228C194.096 207.77 193.738 208.721 194.276 209.304C194.416 209.574 194.767 209.862 194.602 210.192C194.25 210.682 193.582 210.709 193.081 210.966C192.616 211.528 192.21 212.14 191.714 212.677C193.057 215.386 195.073 215.682 195.711 216.822C196.123 217.573 196.408 218.385 196.702 219.188C196.4 218.927 196.103 218.663 195.809 218.398C196.278 219.464 196.535 220.629 196.35 221.793C196.17 221.549 195.999 221.306 195.828 221.06C196.014 221.979 195.984 222.925 195.803 223.841C195.695 223.569 195.59 223.298 195.488 223.025C195.277 224.268 194.993 225.608 193.9 226.398C193.947 226.125 194.045 225.579 194.092 225.305C193.985 225.461 193.767 225.77 193.657 225.924C193.857 226.602 194.443 227.11 195.012 227.493C208.022 230.573 186.036 224.791 213.642 232.007C213.47 231.482 213.323 230.949 213.216 230.406C213.555 230.676 213.887 230.957 214.223 231.234C213.933 230.521 213.458 229.648 214.094 228.973C214.189 229.283 214.282 229.593 214.372 229.905C214.654 229.328 214.911 228.726 215.344 228.24C215.591 228.817 215.31 229.354 215.091 229.878C215.061 230.845 215.249 231.94 216.052 232.578C216.722 232.022 219.321 228.769 224.568 228.436C226.609 228.596 228.639 228.192 230.608 227.692C233.162 227.111 234.413 224.747 235.199 224.354C235.833 224.007 236.439 223.478 236.553 222.724C236.76 221.405 236.534 219.545 236.234 218.232C233.377 217.904 232.468 217.303 231.48 215.754C228.475 217.953 228.968 217.849 227.839 217.956C229.066 215.093 229.188 215.136 231.667 214.646C231.426 214.373 231.163 214.117 230.892 213.876C229.355 214.199 227.796 214.412 226.263 214.75C225.173 215.001 224.036 214.677 223.075 214.157C220.791 212.62 217.262 215.006 216.561 208.948C216.815 209.059 217.137 209.142 217.247 209.434C218.802 212.871 218.987 211.595 221.099 212.303C218.546 208.225 218.898 203.939 220.292 203.562C221.05 204.652 220.292 205.929 220.515 207.119C220.724 209.344 221.949 211.756 224.181 212.518C223.493 211.671 222.305 210.989 222.365 209.764C222.367 208.832 222.503 207.795 223.213 207.119C227.323 202.91 226.593 203.354 227.501 203.033C227.531 203.317 227.683 203.625 227.522 203.896C225.936 207.467 221.45 207.025 225.623 211.941C225.518 211.102 225.247 210.251 225.383 209.405C226.087 208.234 227.287 207.486 228.212 206.509C228.584 205.827 228.551 204.91 229.288 204.453C229.843 205.196 229.833 206.207 229.316 206.962C229.677 206.979 230.104 206.846 230.426 207.085C230.592 207.236 230.571 207.492 230.644 207.692C229.893 207.772 227.717 207.53 226.518 209.649C226.249 210.505 226.619 211.402 226.804 212.237C227.673 209.871 227.287 209.485 228.4 209.912C228.449 210.254 228.18 210.517 228.066 210.81C227.89 211.434 227.837 212.146 227.978 212.794C229.09 213.415 230.352 212.648 231.53 212.761C232.044 212.902 232.443 213.281 232.866 213.591C233.681 213.192 234.413 212.646 235.055 212.002C235.761 211.294 236.869 211.693 237.69 211.257C238.489 210.73 238.781 209.742 239.491 209.12C239.975 209.236 239.824 209.197 240.047 209.259C240.39 209.73 240.545 210.296 240.811 210.807C241.502 211.625 241.967 211.519 241.426 212.351C239.917 213.373 240.65 212.358 239.273 215.2C240.319 216.4 241.584 217.195 243.086 217.742C244.466 218.169 245.158 219.563 245.869 220.703C245.51 220.504 245.167 220.299 244.821 220.09C245.082 220.502 245.338 220.918 245.586 221.342C256.184 207.159 257.258 202.007 267.788 198.623C267.838 197.508 267.965 196.889 268.203 195.854C266.299 195.627 266.436 195.058 266.342 194.37C266.431 194.366 266.613 194.357 266.704 194.353C266.894 194.469 267.093 194.584 267.294 194.695C266.505 193.524 266.821 192.547 266.869 192.309C267.085 192.675 267.309 193.039 267.554 193.39C267.524 192.949 267.48 192.506 267.462 192.064C267.511 191.853 267.571 191.644 267.646 191.438C267.734 191.395 267.911 191.308 267.998 191.264C268.011 191.574 268.029 191.882 268.053 192.191C268.381 191.756 268.709 191.318 269.064 190.9C269.156 190.899 269.339 190.897 269.431 190.895C269.269 191.886 268.858 191.846 268.659 192.587C268.586 193.453 268.462 194.461 269.159 195.122C270.085 194.582 270.966 193.95 271.972 193.562C274.377 192.792 277.057 192.462 279.498 193.259C284.73 194.188 287.15 193.146 288.717 191.758C289.347 191.213 290.32 191.274 290.874 190.605C291.74 189.584 291.805 187.678 292.009 185.632C288.757 184.22 288.676 184.04 287.858 182.109C284.655 183.435 284.976 183.66 283.825 183.459C285.576 180.931 285.903 180.968 288.318 181.07C287.662 180.193 288.628 179.993 283.125 180.008C280.904 180.026 279.84 178.248 278.928 177.939C275.491 176.579 274.896 176.87 274.705 172.722C274.754 172.513 274.862 172.34 275.033 172.203C275.648 173.041 275.39 174.192 276.008 175.035C276.496 175.968 277.695 175.91 278.48 176.471C277.651 173.906 277.365 171.991 278.218 169.349ZM63.1885 250.258C63.2689 251.238 62.5617 252.137 61.5538 252.123C61.655 252.245 61.6979 252.446 61.8851 252.467C62.5133 252.078 63.0817 251.604 63.6697 251.157C63.5271 250.849 63.396 250.532 63.1885 250.258ZM58.2344 263.81C60.6358 265.126 63.1101 266.45 65.8174 267.005C65.4187 265.192 65.2162 263.349 64.9564 261.516C62.7137 262.283 60.6633 263.67 58.2344 263.81Z" fill="#BC8F59"/>
</g>
<path d="M149.338 178.712C149.19 177.54 148.299 176.087 147.226 175.442C146.236 174.782 145.114 174.319 144.701 174.401C144.206 174.5 144.585 175.111 145.477 175.706C146.384 176.383 147.291 177.919 147.538 179.157C147.802 180.477 147.537 181.732 146.844 182.128C146.15 182.523 145.391 182.16 144.946 181.219C144.369 180.047 143.543 179.782 141.562 180.177C140.093 180.556 137.27 181.463 135.289 182.288C132.911 183.277 131.012 184.943 129.41 187.237C128.155 189.118 125.595 191.775 123.713 193.095C121.814 194.332 119.997 195.982 119.551 196.757C118.891 197.747 119.204 198.457 121.002 200.158C122.174 201.298 125.062 203.296 127.356 204.469C129.65 205.642 134.155 207.576 137.39 208.733C140.906 210.005 143.943 210.601 145.148 210.189C146.997 209.562 147.146 209.017 146.751 204.891C146.505 202.365 146.837 198.436 147.415 196.175C148.225 193.353 148.276 191.025 147.551 188.681C146.859 186.073 146.942 184.769 148.048 183.003C148.907 181.716 149.469 179.801 149.338 178.712Z" fill="#BC8F59"/>
<path d="M133.477 210.629C133.428 209.952 132.388 209.044 131.085 208.532C129.797 208.102 128.345 207.705 127.767 207.821C126.942 207.985 127.024 208.398 127.849 209.521C128.525 210.33 129.812 211.189 130.819 211.503L130.819 211.503C131.81 211.734 132.8 211.966 133.047 211.917C133.295 211.867 133.427 211.24 133.477 210.629Z" fill="#BC8F59"/>
<path d="M201.718 55.6681C207.002 53.5479 213.752 55.578 216.853 57.4078C218.789 48.9265 225.023 49.7409 227.898 51.2083C226.438 41.4777 234.613 42.3553 238.884 44.0104C234.879 35.5482 242.251 31.6158 246.438 30.7074C237.951 26.2347 240.917 20.0386 243.46 17.4997C237.039 13.2531 235.715 5.17345 235.855 1.66444C231.31 8.45374 226.619 12.9489 223.857 13.44C224.517 14.3291 225.811 17.3347 225.713 22.2439C225.616 27.1531 220.159 28.9326 217.443 29.2087C217.75 30.956 217.994 35.274 216.516 38.5681C215.038 41.8622 209.497 42.6777 206.912 42.6736C206.574 47.7428 203.309 53.4488 201.718 55.6681Z" fill="#3B533D"/>
<path d="M201.718 55.6681C207.002 53.5479 213.752 55.578 216.853 57.4078C218.789 48.9265 225.023 49.7409 227.898 51.2083C226.438 41.4777 234.613 42.3553 238.884 44.0104C234.879 35.5482 242.251 31.6158 246.438 30.7074C237.951 26.2347 240.917 20.0386 243.46 17.4997C237.039 13.2531 235.715 5.17345 235.855 1.66444C231.31 8.45374 226.619 12.9489 223.857 13.44C224.517 14.3291 225.811 17.3347 225.713 22.2439C225.616 27.1531 220.159 28.9326 217.443 29.2087C217.75 30.956 217.994 35.274 216.516 38.5681C215.038 41.8622 209.497 42.6777 206.912 42.6736C206.574 47.7428 203.309 53.4488 201.718 55.6681ZM201.718 55.6681C212.841 51.0419 234.928 37.0981 234.293 18.3331" stroke="#BC8F59" stroke-width="0.71254" stroke-linecap="round"/>
<path d="M54.9191 184.06C50.7343 186.304 48.4992 191.413 48.0613 194.185C41.4698 191.361 38.7094 195.578 38.1532 198.039C32.5369 192.536 28.7916 197.976 27.621 201.384C24.1823 194.917 17.7041 197.586 14.8949 199.729C16.4445 192.396 10.8095 191.286 7.79833 191.647C8.40461 185.691 3.80052 181.052 1.42269 179.477C8.28212 179.898 13.713 179.142 15.4949 177.678C15.7301 178.504 17.019 180.722 20.2934 182.986C23.5678 185.25 27.6202 182.739 29.2372 181.2C30.2221 182.216 32.9278 184.409 35.8715 185.06C38.8153 185.711 42.2792 182.692 43.6433 181.101C47.1493 183.293 52.6213 183.987 54.9191 184.06Z" fill="#3B533D"/>
<path d="M54.9191 184.06C50.7343 186.304 48.4992 191.413 48.0613 194.185C41.4698 191.361 38.7094 195.578 38.1532 198.039C32.5369 192.536 28.7916 197.976 27.621 201.384C24.1823 194.917 17.7041 197.586 14.8949 199.729C16.4445 192.396 10.8095 191.286 7.79833 191.647C8.4046 185.691 3.80052 181.052 1.42269 179.477C8.28212 179.898 13.713 179.142 15.4949 177.678C15.7301 178.504 17.019 180.722 20.2934 182.986C23.5678 185.25 27.6202 182.739 29.2372 181.2C30.2221 182.216 32.9278 184.409 35.8715 185.06C38.8153 185.711 42.2792 182.692 43.6433 181.101C47.1493 183.293 52.6213 183.987 54.9191 184.06ZM54.9191 184.06C46.0026 188.707 25.1739 195.681 13.1912 186.407" stroke="#BC8F59" stroke-width="0.71254" stroke-linecap="round"/>
<path d="M44.0445 172.684C40.5541 172.136 36.8319 174.246 35.2614 175.746C32.7847 170.98 29.1824 172.3 27.6907 173.555C27.0517 167.593 22.2976 169.21 20.0004 170.764C21.0805 165.212 16.0596 163.871 13.4141 163.895C17.7955 160.105 15.0588 156.831 13.1428 155.668C16.3239 152.289 15.8604 147.323 15.2311 145.262C19.005 148.676 22.5101 150.71 24.2382 150.63C23.9819 151.245 23.6748 153.2 24.4961 156.097C25.3174 158.993 28.8581 159.315 30.5258 159.114C30.6138 160.191 31.139 162.782 32.535 164.536C33.9311 166.29 37.3721 166.029 38.9182 165.68C39.9077 168.639 42.748 171.582 44.0445 172.684Z" fill="#3B533D"/>
<path d="M44.0445 172.684C40.5541 172.136 36.8319 174.246 35.2614 175.746C32.7847 170.98 29.1824 172.3 27.6907 173.555C27.0517 167.593 22.2976 169.21 20.0004 170.764C21.0805 165.212 16.0596 163.871 13.4141 163.895C17.7955 160.105 15.0588 156.831 13.1428 155.668C16.3239 152.289 15.8604 147.323 15.2311 145.262C19.005 148.676 22.5101 150.71 24.2382 150.63C23.9819 151.245 23.6748 153.2 24.4961 156.097C25.3174 158.993 28.8581 159.315 30.5258 159.114C30.6138 160.191 31.139 162.782 32.535 164.536C33.9311 166.29 37.3721 166.029 38.9182 165.68C39.9077 168.639 42.748 171.582 44.0445 172.684ZM44.0445 172.684C36.6717 171.435 21.2921 166.137 18.7562 154.931" stroke="#BC8F59" stroke-width="0.71254" stroke-linecap="round"/>
<path d="M290.22 58.1159C293.416 56.0995 294.94 51.7253 295.156 49.3752C300.487 51.5604 302.468 47.9231 302.792 45.8313C307.478 50.3039 310.179 45.606 310.943 42.6979C313.957 48.0477 318.942 45.6044 321.058 43.7141C320.178 49.9426 324.674 50.7113 327.032 50.3171C326.832 55.3571 330.68 59.1309 332.629 60.3878C327.199 60.2374 322.95 61.0361 321.613 62.3239C321.389 61.6344 320.269 59.8026 317.581 57.9914C314.893 56.1801 311.813 58.4179 310.61 59.7632C309.785 58.9363 307.549 57.1671 305.197 56.7059C302.845 56.2447 300.253 58.8932 299.251 60.2752C296.384 58.5312 292.035 58.109 290.22 58.1159Z" fill="#3B533D"/>
<path d="M290.22 58.1159C293.416 56.0995 294.94 51.7253 295.156 49.3752C300.487 51.5604 302.468 47.9231 302.792 45.8313C307.478 50.3039 310.179 45.606 310.943 42.6979C313.957 48.0477 318.942 45.6044 321.058 43.7141C320.178 49.9426 324.674 50.7113 327.032 50.3171C326.832 55.3571 330.68 59.1309 332.629 60.3878C327.199 60.2374 322.95 61.0361 321.613 62.3239C321.389 61.6344 320.269 59.8026 317.581 57.9914C314.893 56.1801 311.813 58.4179 310.61 59.7632C309.785 58.9363 307.549 57.1671 305.197 56.7059C302.845 56.2447 300.253 58.8932 299.251 60.2752C296.384 58.5312 292.035 58.109 290.22 58.1159ZM290.22 58.1159C297.036 53.9332 313.139 47.4332 323.023 54.8953" stroke="#BC8F59" stroke-width="0.71254" stroke-linecap="round"/>
<path d="M297.69 66.6839C300.93 67.222 304.447 65.2638 305.945 63.8633C308.143 68.362 311.53 67.1455 312.949 65.975C313.406 71.5862 317.874 70.0972 320.05 68.6514C318.915 73.8653 323.563 75.1601 326.028 75.1558C321.858 78.6899 324.332 81.787 326.091 82.8938C323.048 86.0493 323.365 90.7222 323.904 92.6642C320.466 89.4289 317.247 87.4924 315.635 87.5556C315.888 86.9787 316.22 85.1425 315.522 82.4134C314.823 79.6844 311.532 79.3576 309.973 79.5353C309.916 78.5223 309.487 76.0816 308.226 74.4231C306.966 72.7645 303.754 72.9862 302.305 73.3044C301.451 70.5154 298.873 67.7286 297.69 66.6839Z" fill="#3B533D"/>
<path d="M297.69 66.6839C300.93 67.222 304.447 65.2638 305.945 63.8633C308.143 68.362 311.53 67.1455 312.949 65.975C313.406 71.5862 317.874 70.0972 320.05 68.6514C318.915 73.8653 323.563 75.1601 326.028 75.1558C321.858 78.6899 324.332 81.787 326.091 82.8938C323.048 86.0493 323.365 90.7222 323.904 92.6642C320.466 89.4289 317.247 87.4924 315.635 87.5556C315.888 86.9787 316.22 85.1425 315.522 82.4134C314.823 79.6844 311.532 79.3576 309.973 79.5353C309.916 78.5223 309.487 76.0816 308.226 74.4231C306.966 72.7645 303.754 72.9862 302.305 73.3044C301.451 70.5154 298.873 67.7286 297.69 66.6839ZM297.69 66.6839C304.531 67.9077 318.74 72.994 320.843 83.5486" stroke="#BC8F59" stroke-width="0.71254" stroke-linecap="round"/>
<circle cx="189.882" cy="40.8209" r="2.44625" transform="rotate(-0.559812 189.882 40.8209)" fill="#913025"/>
<circle cx="201.679" cy="37.2125" r="3.04405" transform="rotate(-0.559812 201.679 37.2125)" fill="#913025"/>
<circle cx="197.031" cy="48.953" r="1.71787" transform="rotate(-0.559812 197.031 48.953)" fill="#913025"/>
<circle cx="228.995" cy="59.6824" r="1.23084" transform="rotate(-0.559812 228.995 59.6824)" fill="#913025"/>
<g filter="url(#filter3_d_202_56)">
<path d="M75.6016 142.939C70.446 141.281 65.5615 137.875 64.7483 137.526C64.19 137.288 63.4744 137.031 62.916 136.945C61.7125 130.811 61.1107 127.735 59.9072 121.546C60.4765 121.644 60.7638 121.693 61.333 121.778C63.7508 128.408 69.8659 132.622 75.8021 134.31C81.451 135.918 83.1424 134.175 83.1424 132.395C83.1424 130.726 81.657 129.496 78.1983 127.711C74.8534 125.986 73.1946 124.995 69.7413 122.873C64.6291 119.73 60.0699 114.103 60.059 107.315C60.0428 96.7408 73.1241 99.976 78.6049 101.211C84.0695 102.447 87.0132 104.061 87.8263 104.184C88.4389 104.275 89.3063 104.336 89.9135 104.184C91.014 109.492 91.567 112.14 92.6675 117.424C92.1362 117.534 91.8705 117.589 91.3447 117.687C89.5123 114.091 84.617 110.948 79.3693 109.682C73.1512 108.183 71.3676 108.862 71.3676 110.697C71.3676 112.366 73.2162 113.828 76.4635 115.595C79.8192 117.424 82.5298 118.702 85.2296 119.919C89.9569 121.852 94.4456 126.145 94.554 132.187C94.7655 143.593 83.0611 145.348 75.5961 142.945L75.6016 142.939Z" fill="#F2D496"/>
</g>
<g filter="url(#filter4_d_202_56)">
<path d="M123.554 144.134L123.499 142.643C124.868 142.409 125.609 141.745 125.573 140.773C125.554 140.254 125.435 139.817 125.158 139.228C125.047 139.018 124.994 138.91 124.883 138.699C122.627 139.744 120.063 140.677 117.623 141.005C115.038 141.358 112.12 141.092 109.963 140.689C109.892 140.991 109.855 141.145 109.785 141.454C109.659 142.156 109.577 142.741 109.592 143.138C109.628 144.116 110.299 144.354 111.52 144.242C111.543 144.841 111.554 145.14 111.575 145.733C106.473 146.246 101.212 146.422 96.0936 146.194L96.0386 144.703C97.7227 144.769 98.2072 144.078 98.944 141.848C102.328 131.54 105.669 121.215 108.965 110.873C109.332 109.806 109.51 109.041 109.495 108.638C109.457 107.605 108.978 107.127 108.064 107.197L108.009 105.706C113.593 105.304 119.243 104.514 124.754 103.448C124.776 104.047 124.787 104.346 124.809 104.939C123.844 105.121 123.359 105.782 123.395 106.76C123.418 107.389 123.812 108.36 124.033 108.903C128.043 118.338 132.074 127.761 136.143 137.164C137.088 139.259 137.717 139.694 139.131 139.348L139.186 140.84C134.021 142.126 128.784 143.256 123.554 144.14L123.554 144.134ZM115.948 116.349C115.905 116.351 115.889 116.351 115.846 116.365C114.204 122.741 113.383 125.917 111.739 132.239C113.236 132.667 114.567 132.875 116.7 132.594C118.627 132.339 120.287 131.74 121.633 130.882C119.358 125.103 118.22 122.202 115.948 116.355L115.948 116.349Z" fill="#F2D496"/>
</g>
<g filter="url(#filter5_d_202_56)">
<path d="M179.072 93.1194L181.049 128.358C177.496 129.384 175.718 129.919 172.163 131C171.994 129.827 171.43 128.885 170.464 128.014C164.765 122.834 159.051 117.672 153.363 112.479L154.426 131.42C154.561 133.832 155.521 134.592 157.379 134.029L157.463 135.519C151.623 137.298 148.702 138.185 142.852 139.781L142.768 138.291C144.576 137.798 145.426 136.506 145.291 134.095L143.59 103.79C143.452 101.323 142.644 100.566 140.633 101.114L140.549 99.624C145.795 98.1903 148.417 97.4061 153.655 95.8197C153.748 96.6108 154.165 97.6471 154.921 98.352C160.199 103.097 165.492 107.829 170.776 112.573L169.839 95.8733C169.691 93.2354 168.892 92.6554 166.886 93.2764L166.802 91.7866C171.707 90.2679 176.625 88.7913 181.559 87.4058L181.642 88.8957C179.782 89.4166 178.927 90.5426 179.072 93.1255L179.072 93.1194Z" fill="#F2D496"/>
</g>
<g filter="url(#filter6_d_202_56)">
<path d="M222.953 93.6873C222.021 91.512 220.72 90.6018 218.683 90.6921C214.854 90.8593 212.944 91.0193 209.123 91.4617C209.379 100.216 209.636 108.97 209.892 117.717C209.959 120.016 211.007 120.982 212.787 120.814L212.83 122.306C207.427 122.8 201.973 123.627 196.641 124.695L196.597 123.203C198.576 122.821 199.355 121.648 199.286 119.295L198.517 93.039C194.746 93.7185 192.859 94.1042 189.093 94.9487C186.964 95.4271 185.781 96.6916 184.983 99.0828C184.427 98.9584 184.154 98.899 183.597 98.7808C184.364 93.6862 184.751 91.1419 185.518 86.0534C186.336 86.2069 187.41 86.1877 188.622 85.9135C198.594 83.8164 208.436 82.2982 218.574 81.6095C219.799 81.5553 220.811 81.3054 221.614 80.9454C222.673 85.8029 223.205 88.2346 224.264 93.1104C223.74 93.34 223.477 93.4517 222.958 93.6871L222.953 93.6873Z" fill="#F2D496"/>
</g>
<g filter="url(#filter7_d_202_56)">
<path d="M247.357 125.512C247.357 124.912 247.357 124.613 247.357 124.019C248.734 124.411 249.498 124.142 249.498 123.163C249.498 122.643 249.395 122.154 249.14 121.445C249.037 121.182 248.989 121.053 248.886 120.79C246.592 120.723 243.996 120.564 241.545 120.032C238.949 119.469 236.043 118.411 233.901 117.549C233.82 117.836 233.777 117.983 233.695 118.271C233.544 118.943 233.441 119.5 233.441 119.904C233.441 120.882 234.102 121.249 235.327 121.433C235.327 122.032 235.327 122.332 235.327 122.925C230.248 122.136 224.962 121.769 219.839 121.806C219.839 121.206 219.839 120.907 219.839 120.313C221.519 120.313 222.029 119.647 222.848 117.427C226.518 107.507 230.237 97.6058 234.004 87.735C234.411 86.7565 234.617 86.0349 234.617 85.6374C234.617 84.6038 234.156 84.0167 233.24 83.9005V82.4083C238.84 83.0565 244.652 84.3225 250.057 86.1021V87.5944C249.086 87.2825 248.577 87.7106 248.577 88.6891C248.577 89.319 248.934 90.4626 249.135 91.0987C252.903 102.663 256.567 114.265 260.194 125.885C261.062 128.576 261.674 129.432 263.1 130.141C263.1 130.741 263.1 131.04 263.1 131.634C258.112 129.095 252.67 126.986 247.357 125.518V125.512ZM240.781 95.0922C240.738 95.0861 240.721 95.08 240.678 95.0739C238.802 100.823 237.864 103.728 235.989 109.574C237.469 110.381 238.791 110.944 240.933 111.397C242.868 111.8 244.549 111.874 245.926 111.611C244.223 106.1 242.51 100.596 240.781 95.0922Z" fill="#F2D496"/>
</g>
<defs>
<filter id="filter0_d_202_56" x="33.3521" y="19.4297" width="268.295" height="203.864" filterUnits="userSpaceOnUse" color-interpolation-filters="sRGB">
<feFlood flood-opacity="0" result="BackgroundImageFix"/>
<feColorMatrix in="SourceAlpha" type="matrix" values="0 0 0 0 0 0 0 0 0 0 0 0 0 0 0 0 0 0 127 0" result="hardAlpha"/>
<feOffset dy="2.80273"/>
<feComposite in2="hardAlpha" operator="out"/>
<feColorMatrix type="matrix" values="0 0 0 0 0 0 0 0 0 0 0 0 0 0 0 0 0 0 0.47 0"/>
<feBlend mode="normal" in2="BackgroundImageFix" result="effect1_dropShadow_202_56"/>
<feBlend mode="normal" in="SourceGraphic" in2="effect1_dropShadow_202_56" result="shape"/>
</filter>
<filter id="filter1_d_202_56" x="188.743" y="149.511" width="56.0908" height="21.6851" filterUnits="userSpaceOnUse" color-interpolation-filters="sRGB">
<feFlood flood-opacity="0" result="BackgroundImageFix"/>
<feColorMatrix in="SourceAlpha" type="matrix" values="0 0 0 0 0 0 0 0 0 0 0 0 0 0 0 0 0 0 127 0" result="hardAlpha"/>
<feOffset dy="2.16908"/>
<feComposite in2="hardAlpha" operator="out"/>
<feColorMatrix type="matrix" values="0 0 0 0 0 0 0 0 0 0 0 0 0 0 0 0 0 0 0.47 0"/>
<feBlend mode="normal" in2="BackgroundImageFix" result="effect1_dropShadow_202_56"/>
<feBlend mode="normal" in="SourceGraphic" in2="effect1_dropShadow_202_56" result="shape"/>
</filter>
<filter id="filter2_d_202_56" x="35.6494" y="167.749" width="271.357" height="117.88" filterUnits="userSpaceOnUse" color-interpolation-filters="sRGB">
<feFlood flood-opacity="0" result="BackgroundImageFix"/>
<feColorMatrix in="SourceAlpha" type="matrix" values="0 0 0 0 0 0 0 0 0 0 0 0 0 0 0 0 0 0 127 0" result="hardAlpha"/>
<feOffset dy="2.17"/>
<feComposite in2="hardAlpha" operator="out"/>
<feColorMatrix type="matrix" values="0 0 0 0 0 0 0 0 0 0 0 0 0 0 0 0 0 0 0.47 0"/>
<feBlend mode="normal" in2="BackgroundImageFix" result="effect1_dropShadow_202_56"/>
<feBlend mode="normal" in="SourceGraphic" in2="effect1_dropShadow_202_56" result="shape"/>
</filter>
<filter id="filter3_d_202_56" x="59.1072" y="99.7652" width="36.2494" height="48.9168" filterUnits="userSpaceOnUse" color-interpolation-filters="sRGB">
<feFlood flood-opacity="0" result="BackgroundImageFix"/>
<feColorMatrix in="SourceAlpha" type="matrix" values="0 0 0 0 0 0 0 0 0 0 0 0 0 0 0 0 0 0 127 0" result="hardAlpha"/>
<feOffset dy="4"/>
<feGaussianBlur stdDeviation="0.4"/>
<feComposite in2="hardAlpha" operator="out"/>
<feColorMatrix type="matrix" values="0 0 0 0 0 0 0 0 0 0 0 0 0 0 0 0 0 0 0.47 0"/>
<feBlend mode="normal" in2="BackgroundImageFix" result="effect1_dropShadow_202_56"/>
<feBlend mode="normal" in="SourceGraphic" in2="effect1_dropShadow_202_56" result="shape"/>
</filter>
<filter id="filter4_d_202_56" x="95.2386" y="103.448" width="44.7479" height="47.6442" filterUnits="userSpaceOnUse" color-interpolation-filters="sRGB">
<feFlood flood-opacity="0" result="BackgroundImageFix"/>
<feColorMatrix in="SourceAlpha" type="matrix" values="0 0 0 0 0 0 0 0 0 0 0 0 0 0 0 0 0 0 127 0" result="hardAlpha"/>
<feOffset dy="4"/>
<feGaussianBlur stdDeviation="0.4"/>
<feComposite in2="hardAlpha" operator="out"/>
<feColorMatrix type="matrix" values="0 0 0 0 0 0 0 0 0 0 0 0 0 0 0 0 0 0 0.47 0"/>
<feBlend mode="normal" in2="BackgroundImageFix" result="effect1_dropShadow_202_56"/>
<feBlend mode="normal" in="SourceGraphic" in2="effect1_dropShadow_202_56" result="shape"/>
</filter>
<filter id="filter5_d_202_56" x="139.749" y="87.4058" width="42.6928" height="57.1752" filterUnits="userSpaceOnUse" color-interpolation-filters="sRGB">
<feFlood flood-opacity="0" result="BackgroundImageFix"/>
<feColorMatrix in="SourceAlpha" type="matrix" values="0 0 0 0 0 0 0 0 0 0 0 0 0 0 0 0 0 0 127 0" result="hardAlpha"/>
<feOffset dy="4"/>
<feGaussianBlur stdDeviation="0.4"/>
<feComposite in2="hardAlpha" operator="out"/>
<feColorMatrix type="matrix" values="0 0 0 0 0 0 0 0 0 0 0 0 0 0 0 0 0 0 0.47 0"/>
<feBlend mode="normal" in2="BackgroundImageFix" result="effect1_dropShadow_202_56"/>
<feBlend mode="normal" in="SourceGraphic" in2="effect1_dropShadow_202_56" result="shape"/>
</filter>
<filter id="filter6_d_202_56" x="182.797" y="80.9454" width="42.2675" height="48.5497" filterUnits="userSpaceOnUse" color-interpolation-filters="sRGB">
<feFlood flood-opacity="0" result="BackgroundImageFix"/>
<feColorMatrix in="SourceAlpha" type="matrix" values="0 0 0 0 0 0 0 0 0 0 0 0 0 0 0 0 0 0 127 0" result="hardAlpha"/>
<feOffset dy="4"/>
<feGaussianBlur stdDeviation="0.4"/>
<feComposite in2="hardAlpha" operator="out"/>
<feColorMatrix type="matrix" values="0 0 0 0 0 0 0 0 0 0 0 0 0 0 0 0 0 0 0.47 0"/>
<feBlend mode="normal" in2="BackgroundImageFix" result="effect1_dropShadow_202_56"/>
<feBlend mode="normal" in="SourceGraphic" in2="effect1_dropShadow_202_56" result="shape"/>
</filter>
<filter id="filter7_d_202_56" x="219.039" y="82.4083" width="44.8612" height="54.0253" filterUnits="userSpaceOnUse" color-interpolation-filters="sRGB">
<feFlood flood-opacity="0" result="BackgroundImageFix"/>
<feColorMatrix in="SourceAlpha" type="matrix" values="0 0 0 0 0 0 0 0 0 0 0 0 0 0 0 0 0 0 127 0" result="hardAlpha"/>
<feOffset dy="4"/>
<feGaussianBlur stdDeviation="0.4"/>
<feComposite in2="hardAlpha" operator="out"/>
<feColorMatrix type="matrix" values="0 0 0 0 0 0 0 0 0 0 0 0 0 0 0 0 0 0 0.47 0"/>
<feBlend mode="normal" in2="BackgroundImageFix" result="effect1_dropShadow_202_56"/>
<feBlend mode="normal" in="SourceGraphic" in2="effect1_dropShadow_202_56" result="shape"/>
</filter>
</defs>
</svg>
